<svg xmlns="http://www.w3.org/2000/svg" xmlns:xlink="http://www.w3.org/1999/xlink" width="1213px" height="724px" version="1.1"><defs><linearGradient x1="0%" y1="0%" x2="0%" y2="100%" id="mx-gradient-ffe599-1-f1c232-1-s-0"><stop offset="0%" style="stop-color:#FFE599"/><stop offset="100%" style="stop-color:#F1C232"/></linearGradient></defs><g transform="translate(0.5,0.5)"><ellipse cx="29" cy="327" rx="10" ry="10" fill="#274e13" stroke="#274e13" stroke-width="2" pointer-events="none"/><path d="M 29 337 L 29 370 M 29 344 L 9 344 M 29 344 L 49 344 M 29 370 L 9 397 M 29 370 L 49 397" fill="none" stroke="#274e13" stroke-width="2" stroke-miterlimit="10" pointer-events="none"/><g fill="#000000" font-family="Helvetica" font-weight="bold" font-style="italic" text-anchor="middle" font-size="18px"><text x="29" y="421">Admin</text></g><ellipse cx="49" cy="622" rx="10" ry="10" fill="#274e13" stroke="#274e13" stroke-width="2" pointer-events="none"/><path d="M 49 632 L 49 665 M 49 639 L 29 639 M 49 639 L 69 639 M 49 665 L 29 692 M 49 665 L 69 692" fill="none" stroke="#274e13" stroke-width="2" stroke-miterlimit="10" pointer-events="none"/><g fill="#000000" font-family="Helvetica" font-weight="bold" font-style="italic" text-anchor="middle" font-size="18px"><text x="49" y="716">Client</text></g><ellipse cx="349" cy="240" rx="90" ry="37.5" fill="#d0d0d0" stroke="#d0d0d0" stroke-width="2" transform="translate(2,3)" opacity="1"/><ellipse cx="349" cy="240" rx="90" ry="37.5" fill="url(#mx-gradient-ffe599-1-f1c232-1-s-0)" stroke="black" stroke-width="2" pointer-events="none"/><g fill="#000000" font-family="Helvetica" text-anchor="middle" font-size="12px"><text x="349" y="244">Ajouter score à la BD</text></g><ellipse cx="369" cy="542" rx="90" ry="37.5" fill="#d0d0d0" stroke="#d0d0d0" stroke-width="2" transform="translate(2,3)" opacity="1"/><ellipse cx="369" cy="542" rx="90" ry="37.5" fill="url(#mx-gradient-ffe599-1-f1c232-1-s-0)" stroke="black" stroke-width="2" pointer-events="none"/><g fill="#000000" font-family="Helvetica" text-anchor="middle" font-size="12px"><text x="369" y="546">Commencer</text></g><ellipse cx="769" cy="357" rx="90" ry="37.5" fill="#d0d0d0" stroke="#d0d0d0" stroke-width="2" transform="translate(2,3)" opacity="1"/><ellipse cx="769" cy="357" rx="90" ry="37.5" fill="url(#mx-gradient-ffe599-1-f1c232-1-s-0)" stroke="black" stroke-width="2" pointer-events="none"/><g fill="#000000" font-family="Helvetica" text-anchor="middle" font-size="12px"><text x="769" y="361">Ecrire</text></g><ellipse cx="779" cy="520" rx="90" ry="37.5" fill="#d0d0d0" stroke="#d0d0d0" stroke-width="2" transform="translate(2,3)" opacity="1"/><ellipse cx="779" cy="520" rx="90" ry="37.5" fill="url(#mx-gradient-ffe599-1-f1c232-1-s-0)" stroke="black" stroke-width="2" pointer-events="none"/><g fill="#000000" font-family="Helvetica" text-anchor="middle" font-size="12px"><text x="779" y="524">Pause</text></g><ellipse cx="789" cy="655" rx="90" ry="37.5" fill="#d0d0d0" stroke="#d0d0d0" stroke-width="2" transform="translate(2,3)" opacity="1"/><ellipse cx="789" cy="655" rx="90" ry="37.5" fill="url(#mx-gradient-ffe599-1-f1c232-1-s-0)" stroke="black" stroke-width="2" pointer-events="none"/><g fill="#000000" font-family="Helvetica" text-anchor="middle" font-size="12px"><text x="789" y="659">Changer  d'arme</text></g><path d="M 49 348 L 250 254" fill="none" stroke="#990000" stroke-width="2" stroke-miterlimit="10" pointer-events="none"/><path d="M 257 250 L 251 257 L 248 250 Z" fill="#990000" stroke="#990000" stroke-width="2" stroke-miterlimit="10" pointer-events="none"/><path d="M 69 642 L 270 546" fill="none" stroke="#990000" stroke-width="2" stroke-miterlimit="10" pointer-events="none"/><path d="M 277 543 L 271 550 L 268 543 Z" fill="#990000" stroke="#990000" stroke-width="2" stroke-miterlimit="10" pointer-events="none"/><path d="M 459 542 L 671 364" fill="none" stroke="#990000" stroke-width="2" stroke-miterlimit="10" pointer-events="none"/><path d="M 677 358 L 674 367 L 669 361 Z" fill="#990000" stroke="#990000" stroke-width="2" stroke-miterlimit="10" pointer-events="none"/><path d="M 459 542 L 690 650" fill="none" stroke="#990000" stroke-width="2" stroke-miterlimit="10" pointer-events="none"/><path d="M 697 654 L 688 654 L 691 647 Z" fill="#990000" stroke="#990000" stroke-width="2" stroke-miterlimit="10" pointer-events="none"/><path d="M 869 520 L 967 269" fill="none" stroke="#990000" stroke-width="2" stroke-miterlimit="10" pointer-events="none"/><path d="M 970 262 L 971 270 L 964 268 Z" fill="#990000" stroke="#990000" stroke-width="2" stroke-miterlimit="10" pointer-events="none"/><path d="M 869 520 L 1019 484" fill="none" stroke="#990000" stroke-width="2" stroke-miterlimit="10" pointer-events="none"/><path d="M 1027 483 L 1020 488 L 1018 480 Z" fill="#990000" stroke="#990000" stroke-width="2" stroke-miterlimit="10" pointer-events="none"/><path d="M 869 522 L 992 377" fill="none" stroke="#990000" stroke-width="2" stroke-miterlimit="10" pointer-events="none"/><path d="M 998 371 L 995 380 L 989 375 Z" fill="#990000" stroke="#990000" stroke-width="2" stroke-miterlimit="10" pointer-events="none"/><path d="M 869 522 L 1022 675" fill="none" stroke="#990000" stroke-width="2" stroke-miterlimit="10" pointer-events="none"/><path d="M 1027 680 L 1019 678 L 1025 672 Z" fill="#990000" stroke="#990000" stroke-width="2" stroke-miterlimit="10" pointer-events="none"/><path d="M 32 397 L 48 602" fill="none" stroke="#990000" stroke-width="2" stroke-miterlimit="10" pointer-events="none"/><path d="M 49 610 L 44 602 L 52 601 Z" fill="#990000" stroke="#990000" stroke-width="2" stroke-miterlimit="10" pointer-events="none"/><path d="M 459 542 L 679 520" fill="none" stroke="#990000" stroke-width="2" stroke-miterlimit="10" pointer-events="none"/><path d="M 687 520 L 679 524 L 678 517 Z" fill="#990000" stroke="#990000" stroke-width="2" stroke-miterlimit="10" pointer-events="none"/><ellipse cx="1061" cy="260" rx="90" ry="37.5" fill="#d0d0d0" stroke="#d0d0d0" stroke-width="2" transform="translate(2,3)" opacity="1"/><ellipse cx="1061" cy="260" rx="90" ry="37.5" fill="url(#mx-gradient-ffe599-1-f1c232-1-s-0)" stroke="black" stroke-width="2" pointer-events="none"/><g fill="#000000" font-family="Helvetica" text-anchor="middle" font-size="12px"><text x="1061" y="264">Quitter</text></g><ellipse cx="1089" cy="370" rx="90" ry="37.5" fill="#d0d0d0" stroke="#d0d0d0" stroke-width="2" transform="translate(2,3)" opacity="1"/><ellipse cx="1089" cy="370" rx="90" ry="37.5" fill="url(#mx-gradient-ffe599-1-f1c232-1-s-0)" stroke="black" stroke-width="2" pointer-events="none"/><g fill="#000000" font-family="Helvetica" text-anchor="middle" font-size="12px"><text x="1089" y="374">Résumer</text></g><ellipse cx="1119" cy="482" rx="90" ry="37.5" fill="#d0d0d0" stroke="#d0d0d0" stroke-width="2" transform="translate(2,3)" opacity="1"/><ellipse cx="1119" cy="482" rx="90" ry="37.5" fill="url(#mx-gradient-ffe599-1-f1c232-1-s-0)" stroke="black" stroke-width="2" pointer-events="none"/><g fill="#000000" font-family="Helvetica" text-anchor="middle" font-size="12px"><text x="1119" y="486">Régler Volume</text></g><ellipse cx="1119" cy="682" rx="90" ry="37.5" fill="#d0d0d0" stroke="#d0d0d0" stroke-width="2" transform="translate(2,3)" opacity="1"/><ellipse cx="1119" cy="682" rx="90" ry="37.5" fill="url(#mx-gradient-ffe599-1-f1c232-1-s-0)" stroke="black" stroke-width="2" pointer-events="none"/><g fill="#000000" font-family="Helvetica" text-anchor="middle" font-size="12px"><text x="1119" y="686">Régler Musique</text></g><path d="M 997 233 L 837 84" fill="none" stroke="#990000" stroke-width="2" stroke-miterlimit="10" pointer-events="none"/><path d="M 831 79 L 839 81 L 834 87 Z" fill="#990000" stroke="#990000" stroke-width="2" stroke-miterlimit="10" pointer-events="none"/><ellipse cx="829" cy="40" rx="90" ry="37.5" fill="#d0d0d0" stroke="#d0d0d0" stroke-width="2" transform="translate(2,3)" opacity="1"/><ellipse cx="829" cy="40" rx="90" ry="37.5" fill="url(#mx-gradient-ffe599-1-f1c232-1-s-0)" stroke="black" stroke-width="2" pointer-events="none"/><g fill="#000000" font-family="Helvetica" text-anchor="middle" font-size="12px"><text x="829" y="44">Confirmation Quitter</text></g><path d="M 739 40 L 375 496" fill="none" stroke="#990000" stroke-width="2" stroke-miterlimit="10" pointer-events="none"/><path d="M 370 503 L 372 494 L 379 499 Z" fill="#990000" stroke="#990000" stroke-width="2" stroke-miterlimit="10" pointer-events="none"/></g></svg>