<?xml version="1.0" encoding="utf-8"?>
<!-- Generator: Adobe Illustrator 14.0.0, SVG Export Plug-In . SVG Version: 6.00 Build 43363)  -->
<!DOCTYPE svg PUBLIC "-//W3C//DTD SVG 1.1//EN" "http://www.w3.org/Graphics/SVG/1.1/DTD/svg11.dtd">
<svg version="1.1" xmlns="http://www.w3.org/2000/svg" xmlns:xlink="http://www.w3.org/1999/xlink" x="0px" y="0px" width="800px"
	 height="300px" viewBox="0 0 800 300" enable-background="new 0 0 800 300" xml:space="preserve">
<g id="Calque_2">
	<rect width="800" height="300"/>
</g>
<g id="Calque_1">
	<g>
		<title  id="title4113">Buildings  icon</title>
		
			<sodipodi:namedview  id="base" inkscape:window-maximized="1" inkscape:window-y="-4" inkscape:window-x="-4" inkscape:window-height="712" inkscape:window-width="1280" inkscape:grid-bbox="true" inkscape:document-units="px" inkscape:current-layer="layer1" inkscape:pageshadow="2" inkscape:pageopacity="0.0" inkscape:cx="32" inkscape:zoom="5.5" borderopacity="1.0" bordercolor="#666666" showgrid="true" pagecolor="#ffffff" inkscape:cy="32">
			</sodipodi:namedview>
		<g id="layer1" inkscape:groupmode="layer" inkscape:label="Layer 1">
			<g id="rect4116" inkscape:connector-curvature="0" sodipodi:nodetypes="ccccccccccccccccccc">
				<path fill="#0E242F" d="M213.811,44.219v103.427h-23.664V99.581H138.61V68.25H98.053v73.118H87.908V93.317H28.76v26.121H0.875
					v122.219c114.486,4.644,183.922-0.014,284.762-0.014V131.967h-37.178V44.219H213.811z"/>
				<g>
					<path fill="#E2001A" d="M212.841,44.327c0,34.476,0,68.952,0,103.427c0.444-0.232,0.889-0.465,1.333-0.698
						c-6.655,0-13.311,0-19.966,0c-1.078,0-2.155,0-3.232,0c-0.626,0,0.139,0.887,0.139-0.164c0-2.476,0-4.952,0-7.428
						c0-13.331,0-26.661,0-39.992c0-0.335-0.289-0.482-0.605-0.482c-15.307,0-30.614,0-45.921,0c-1.864,0-3.727,0-5.591,0
						c0.716,0,0.58,0.826,0.58-0.161c0-0.59,0-1.181,0-1.772c0-2.002,0-4.004,0-6.006c0-7.637,0-15.273,0-22.91
						c0-0.335-0.289-0.482-0.605-0.482c-13.519,0-27.038,0-40.557,0c-0.354,0-1.333,0.175-1.333,0.698c0,24.373,0,48.746,0,73.118
						c0.444-0.232,0.889-0.465,1.333-0.698c-2.597,0-5.195,0-7.792,0c-0.472,0-0.944,0-1.417,0c-1.277,0-0.332-0.161-0.332,0.455
						c0-0.405,0-0.81,0-1.214c0-5.161,0-10.322,0-15.484c0-10.442,0-20.884,0-31.326c0-0.335-0.289-0.482-0.605-0.482
						c-19.716,0-39.432,0-59.147,0c-0.354,0-1.333,0.175-1.333,0.698c0,8.707,0,17.414,0,26.121
						c0.444-0.232,0.889-0.465,1.333-0.698c-9.295,0-18.59,0-27.885,0c-0.354,0-1.333,0.175-1.333,0.698c0,40.74,0,81.479,0,122.22
						c0,0.344,0.289,0.469,0.605,0.481c94.96,3.815,189.788,0.012,284.762-0.014c0.354,0,1.333-0.175,1.333-0.698
						c0-36.559,0-73.117,0-109.676c0-0.335-0.289-0.482-0.605-0.482c-11.348,0-22.696,0-34.044,0c-0.766,0-1.531,0-2.297,0
						c-1.262,0-0.231-0.096-0.231,0.422c0-0.897,0-1.794,0-2.692c0-4.959,0-9.918,0-14.877c0-23.373,0-46.746,0-70.118
						c0-0.335-0.289-0.482-0.605-0.482c-11.549,0-23.099,0-34.648,0c-0.777,0-2.036,1.18-0.729,1.18c10.978,0,21.956,0,32.934,0
						c0.521,0,1.043,0,1.565,0c-0.041,0-0.455-0.852-0.455-0.114c0,1.208,0,2.416,0,3.624c0,5.099,0,10.199,0,15.298
						c0,22.819,0,45.639,0,68.458c0,0.335,0.289,0.482,0.605,0.482c11.996,0,23.992,0,35.989,0c1.608,0,0.584-0.783,0.584,0.094
						c0,1.29,0,2.579,0,3.868c0,5.193,0,10.387,0,15.58c0,28.403,0,56.807,0,85.209c0,1.481,0,2.963,0,4.444
						c0.444-0.233,0.889-0.466,1.333-0.698c-53.029,0.014-106.038,1.558-159.063,1.979c-27.942,0.223-55.884,0.046-83.819-0.611
						c-3.812-0.09-41.275-1.204-41.275-1.044c0-2.659,0-5.319,0-7.979c0-38.023,0-76.046,0-114.068
						c-0.444,0.232-0.889,0.465-1.333,0.698c9.295,0,18.59,0,27.885,0c0.354,0,1.333-0.175,1.333-0.698c0-8.707,0-17.414,0-26.121
						c-0.444,0.232-0.889,0.465-1.333,0.698c19.151,0,38.303,0,57.455,0c0.448,0,0.896,0,1.345,0c0.746,0-0.257-0.322-0.257-0.375
						c0,1.121,0,2.242,0,3.362c0,5.379,0,10.758,0,16.137c0,9.482,0,18.964,0,28.446c0,0.335,0.289,0.482,0.605,0.482
						c3.382,0,6.764,0,10.146,0c0.354,0,1.333-0.175,1.333-0.698c0-24.373,0-48.746,0-73.118c-0.444,0.232-0.889,0.465-1.333,0.698
						c12.882,0,25.765,0,38.647,0c0.594,0,1.188,0,1.782,0c-0.638,0-0.477-0.583-0.477,0.92c0,3.597,0,7.193,0,10.79
						c0,6.379,0,12.759,0,19.139c0,0.335,0.289,0.482,0.605,0.482c17.104,0,34.209,0,51.314,0c-0.345,0-0.382-0.733-0.382,0.759
						c0,1.558,0,3.116,0,4.674c0,5.546,0,11.091,0,16.637c0,8.504,0,17.009,0,25.513c0,0.335,0.289,0.482,0.605,0.482
						c7.888,0,15.775,0,23.664,0c0.354,0,1.333-0.175,1.333-0.698c0-34.476,0-68.952,0-103.427
						C214.78,43.242,212.841,43.632,212.841,44.327z"/>
				</g>
			</g>
			<g id="rect4139">
				<rect x="39.742" y="106.901" fill="#FFFFFF" width="5.173" height="21.936"/>
				<g>
					<path fill="#E2001A" d="M39.379,107.495c1.005,0,2.011,0,3.016,0c0.66,0,1.32,0,1.98,0c-0.502,0-0.429-0.813-0.429-0.099
						c0,2.389,0,4.778,0,7.167c0,4.793,0,9.587,0,14.38c0.444-0.234,0.889-0.467,1.333-0.701c-1.005,0-2.011,0-3.016,0
						c-0.66,0-1.32,0-1.98,0c0.502,0,0.429,0.813,0.429,0.099c0-2.389,0-4.778,0-7.167c0-4.793,0-9.587,0-14.38
						c0-0.875-1.939-0.488-1.939,0.214c0,7.312,0,14.624,0,21.936c0,0.336,0.289,0.487,0.606,0.487c1.725,0,3.449,0,5.173,0
						c0.357,0,1.333-0.175,1.333-0.701c0-7.312,0-14.624,0-21.936c0-0.336-0.289-0.487-0.606-0.487c-1.725,0-3.449,0-5.173,0
						C39.323,106.307,38.071,107.495,39.379,107.495z"/>
				</g>
			</g>
			<g id="rect4141">
				<rect x="47.317" y="106.901" fill="#FFFFFF" width="5.173" height="21.936"/>
				<g>
					<path fill="#E2001A" d="M46.927,107.393c1.005,0,2.011,0,3.016,0c0.66,0,1.32,0,1.98,0c-0.49,0-0.397-0.391-0.397,0.156
						c0,2.389,0,4.778,0,7.167c0,4.793,0,9.586,0,14.38c0.452-0.25,0.904-0.5,1.356-0.75c-1.005,0-2.011,0-3.016,0
						c-0.66,0-1.32,0-1.98,0c0.49,0,0.397,0.391,0.397-0.156c0-2.389,0-4.778,0-7.167c0-4.793,0-9.586,0-14.38
						c0-0.503-1.932-0.167-1.932,0.518c0,7.312,0,14.624,0,21.936c0,0.217,0.454,0.233,0.575,0.233c1.724,0,3.449,0,5.173,0
						c0.412,0,1.356-0.205,1.356-0.75c0-7.312,0-14.624,0-21.936c0-0.217-0.454-0.233-0.575-0.233c-1.724,0-3.449,0-5.173,0
						C47.06,106.409,45.626,107.393,46.927,107.393z"/>
				</g>
			</g>
			<g id="rect4143">
				<rect x="55.903" y="106.901" fill="#FFFFFF" width="5.173" height="21.936"/>
				<g>
					<path fill="#E2001A" d="M55.546,107.518c1.005,0,2.01,0,3.016,0c0.66,0,1.32,0,1.98,0c-0.508,0-0.437-0.859-0.437-0.129
						c0,2.389,0,4.778,0,7.167c0,4.793,0,9.587,0,14.38c0.443-0.239,0.886-0.478,1.329-0.717c-1.005,0-2.01,0-3.016,0
						c-0.66,0-1.32,0-1.98,0c0.508,0,0.437,0.859,0.437,0.129c0-2.389,0-4.778,0-7.167c0-4.793,0-9.587,0-14.38
						c0-0.907-1.943-0.537-1.943,0.199c0,7.312,0,14.624,0,21.936c0,0.339,0.287,0.518,0.615,0.518c1.724,0,3.449,0,5.173,0
						c0.374,0,1.329-0.172,1.329-0.717c0-7.312,0-14.624,0-21.936c0-0.339-0.287-0.518-0.615-0.518c-1.724,0-3.449,0-5.173,0
						C55.447,106.284,54.238,107.518,55.546,107.518z"/>
				</g>
			</g>
			<g id="rect4153">
				<rect x="141.987" y="115.258" fill="#FFFFFF" width="5.173" height="21.936"/>
				<g>
					<path fill="#E2001A" d="M141.894,115.935c1.724,0,3.448,0,5.173,0c-0.294-0.198-0.588-0.396-0.883-0.595
						c0,7.312,0,14.624,0,21.936c0.357-0.253,0.714-0.506,1.07-0.759c-1.724,0-3.448,0-5.173,0c0.294,0.198,0.588,0.396,0.883,0.595
						c0-7.312,0-14.624,0-21.936c0-0.982-1.953-0.662-1.953,0.164c0,7.312,0,14.624,0,21.936c0,0.5,0.471,0.595,0.883,0.595
						c1.724,0,3.448,0,5.173,0c0.361,0,1.07-0.313,1.07-0.759c0-7.312,0-14.624,0-21.936c0-0.5-0.471-0.595-0.883-0.595
						c-1.724,0-3.448,0-5.173,0C141,114.581,140.58,115.935,141.894,115.935z"/>
				</g>
			</g>
			<g id="rect4155">
				<rect x="149.562" y="115.258" fill="#FFFFFF" width="5.17" height="21.936"/>
				<g>
					<path fill="#E2001A" d="M148.935,115.649c1.005,0,2.01,0,3.015,0c1.018,0,1.817-0.352,1.817,0.256c0,2.389,0,4.778,0,7.167
						c0,4.793,0,9.586,0,14.38c0.531-0.217,1.062-0.433,1.593-0.65c-1.005,0-2.01,0-3.015,0c-1.018,0-1.817,0.352-1.817-0.256
						c0-2.389,0-4.778,0-7.167c0-4.793,0-9.586,0-14.38c0-0.308-1.932-0.032-1.932,0.518c0,7.312,0,14.624,0,21.936
						c0,0.118,0.284,0.132,0.338,0.132c1.724,0,3.447,0,5.17,0c0.336,0,1.593-0.146,1.593-0.65c0-7.312,0-14.624,0-21.936
						c0-0.118-0.284-0.132-0.338-0.132c-1.724,0-3.447,0-5.17,0C149.789,114.867,147.989,115.649,148.935,115.649z"/>
				</g>
			</g>
			<g id="rect4157">
				<rect x="158.147" y="115.258" fill="#FFFFFF" width="5.173" height="21.936"/>
				<g>
					<path fill="#E2001A" d="M157.793,115.887c1.005,0,2.011,0,3.016,0c0.66,0,1.32,0,1.98,0c-0.512,0-0.441-0.883-0.441-0.145
						c0,2.389,0,4.778,0,7.167c0,4.793,0,9.587,0,14.38c0.442-0.242,0.884-0.484,1.327-0.726c-1.005,0-2.011,0-3.016,0
						c-0.66,0-1.32,0-1.98,0c0.512,0,0.441,0.883,0.441,0.145c0-2.389,0-4.778,0-7.167c0-4.793,0-9.587,0-14.38
						c0-0.923-1.945-0.563-1.945,0.192c0,7.312,0,14.624,0,21.936c0,0.34,0.286,0.533,0.619,0.533c1.725,0,3.449,0,5.173,0
						c0.383,0,1.327-0.171,1.327-0.726c0-7.312,0-14.624,0-21.936c0-0.34-0.286-0.533-0.619-0.533c-1.725,0-3.449,0-5.173,0
						C157.672,114.628,156.486,115.887,157.793,115.887z"/>
				</g>
			</g>
			<g id="rect4159">
				<rect x="223.953" y="56.761" fill="#FFFFFF" width="5.168" height="21.937"/>
				<g>
					<path fill="#E2001A" d="M223.874,57.494c1.723,0,3.446,0,5.169,0c-0.301-0.222-0.602-0.444-0.902-0.667
						c0,7.313,0,14.625,0,21.937c0.353-0.266,0.706-0.533,1.059-0.799c-1.723,0-3.445,0-5.168,0c0.3,0.222,0.601,0.444,0.901,0.667
						c0-7.313,0-14.625,0-21.937c0-1.043-1.961-0.772-1.961,0.133c0,7.313,0,14.625,0,21.937c0,0.512,0.463,0.667,0.901,0.667
						c1.723,0,3.446,0,5.169,0c0.394,0,1.059-0.332,1.059-0.799c0-7.313,0-14.625,0-21.937c0-0.512-0.463-0.667-0.902-0.667
						c-1.723,0-3.445,0-5.168,0C222.909,56.028,222.565,57.494,223.874,57.494z"/>
				</g>
			</g>
			<g id="rect4161">
				<rect x="231.523" y="56.761" fill="#FFFFFF" width="5.178" height="21.937"/>
				<g>
					<path fill="#E2001A" d="M231.122,57.212c1.006,0,2.012,0,3.019,0c0.661,0,1.321,0,1.982,0c-0.482,0-0.387-0.315-0.387,0.196
						c0,2.389,0,4.778,0,7.167c0,4.794,0,9.587,0,14.381c0.456-0.237,0.912-0.474,1.367-0.71c-1.006,0-2.012,0-3.019,0
						c-0.661,0-1.321,0-1.982,0c0.482,0,0.387,0.315,0.387-0.196c0-2.389,0-4.778,0-7.167c0-4.794,0-9.587,0-14.381
						c0-0.431-1.932-0.117-1.932,0.518c0,7.312,0,14.625,0,21.937c0,0.204,0.46,0.192,0.564,0.192c1.726,0,3.452,0,5.178,0
						c0.369,0,1.367-0.205,1.367-0.71c0-7.312,0-14.625,0-21.937c0-0.204-0.46-0.192-0.564-0.192c-1.726,0-3.452,0-5.178,0
						C231.329,56.31,229.828,57.212,231.122,57.212z"/>
				</g>
			</g>
			<g id="rect4165">
				<rect x="224.8" y="89.144" fill="#FFFFFF" width="5.168" height="21.934"/>
				<g>
					<path fill="#E2001A" d="M224.424,89.688c1.004,0,2.009,0,3.013,0c0.659,0,1.318,0,1.978,0c-0.501,0-0.412-0.484-0.412,0.103
						c0,2.389,0,4.777,0,7.166c0,4.793,0,9.586,0,14.379c0.447-0.268,0.895-0.536,1.342-0.803c-1.004,0-2.009,0-3.013,0
						c-0.659,0-1.318,0-1.978,0c0.501,0,0.412,0.484,0.412-0.103c0-2.389,0-4.777,0-7.166c0-4.793,0-9.586,0-14.379
						c0-0.595-1.932-0.23-1.932,0.518c0,7.311,0,14.623,0,21.934c0,0.23,0.446,0.286,0.589,0.286c1.723,0,3.445,0,5.168,0
						c0.468,0,1.342-0.208,1.342-0.803c0-7.311,0-14.623,0-21.934c0-0.23-0.446-0.286-0.589-0.286c-1.723,0-3.445,0-5.168,0
						C224.459,88.6,223.118,89.688,224.424,89.688z"/>
				</g>
			</g>
			<g id="rect4167">
				<rect x="232.37" y="89.144" fill="#FFFFFF" width="5.173" height="21.934"/>
				<g>
					<path fill="#E2001A" d="M231.741,89.527c1.005,0,2.011,0,3.016,0c1.007,0,1.821-0.354,1.821,0.265c0,2.389,0,4.777,0,7.166
						c0,4.793,0,9.586,0,14.379c0.532-0.214,1.063-0.428,1.595-0.642c-1.005,0-2.011,0-3.016,0c-1.007,0-1.821,0.354-1.821-0.265
						c0-2.389,0-4.777,0-7.166c0-4.793,0-9.586,0-14.379c0-0.289-1.932-0.019-1.932,0.518c0,7.311,0,14.623,0,21.934
						c0,0.116,0.286,0.124,0.336,0.124c1.725,0,3.449,0,5.173,0c0.326,0,1.595-0.153,1.595-0.642c0-7.311,0-14.623,0-21.934
						c0-0.116-0.286-0.124-0.336-0.124c-1.725,0-3.449,0-5.173,0C232.609,88.761,230.803,89.527,231.741,89.527z"/>
				</g>
			</g>
			<g id="rect4169">
				<rect x="109.033" y="104.811" fill="#FFFFFF" width="5.171" height="21.937"/>
				<g>
					<path fill="#E2001A" d="M108.954,105.543c1.724,0,3.447,0,5.171,0c-0.3-0.222-0.601-0.443-0.901-0.665
						c0,7.312,0,14.625,0,21.937c0.353-0.266,0.707-0.533,1.06-0.799c-1.724,0-3.447,0-5.171,0c0.3,0.222,0.601,0.443,0.901,0.665
						c0-7.312,0-14.625,0-21.937c0-1.042-1.961-0.77-1.961,0.134c0,7.312,0,14.625,0,21.937c0,0.512,0.463,0.665,0.901,0.665
						c1.724,0,3.447,0,5.171,0c0.393,0,1.06-0.332,1.06-0.799c0-7.312,0-14.625,0-21.937c0-0.512-0.463-0.665-0.901-0.665
						c-1.724,0-3.447,0-5.171,0C107.99,104.079,107.645,105.543,108.954,105.543z"/>
				</g>
			</g>
			<g id="rect4171">
				<rect x="116.608" y="104.811" fill="#FFFFFF" width="5.17" height="21.937"/>
				<g>
					<path fill="#E2001A" d="M116.207,105.262c1.004,0,2.009,0,3.014,0c0.66,0,1.319,0,1.979,0c-0.482,0-0.387-0.315-0.387,0.196
						c0,2.389,0,4.778,0,7.167c0,4.793,0,9.587,0,14.381c0.456-0.237,0.912-0.473,1.367-0.71c-1.004,0-2.009,0-3.014,0
						c-0.66,0-1.319,0-1.979,0c0.482,0,0.387,0.315,0.387-0.196c0-2.389,0-4.778,0-7.167c0-4.793,0-9.587,0-14.381
						c0-0.431-1.932-0.117-1.932,0.518c0,7.313,0,14.625,0,21.937c0,0.204,0.46,0.192,0.564,0.192c1.723,0,3.447,0,5.17,0
						c0.369,0,1.367-0.206,1.367-0.71c0-7.313,0-14.625,0-21.937c0-0.204-0.46-0.192-0.564-0.192c-1.723,0-3.447,0-5.17,0
						C116.414,104.36,114.912,105.262,116.207,105.262z"/>
				</g>
			</g>
			<g id="rect4173">
				<rect x="142.832" y="145.55" fill="#FFFFFF" width="5.173" height="21.937"/>
				<g>
					<path fill="#E2001A" d="M142.477,146.175c1.005,0,2.01,0,3.016,0c0.66,0,1.32,0,1.979,0c-0.51,0-0.439-0.874-0.439-0.139
						c0,2.389,0,4.778,0,7.168c0,4.793,0,9.587,0,14.381c0.442-0.241,0.885-0.481,1.327-0.723c-1.005,0-2.01,0-3.016,0
						c-0.66,0-1.32,0-1.979,0c0.51,0,0.439,0.874,0.439,0.139c0-2.389,0-4.778,0-7.167c0-4.794,0-9.587,0-14.381
						c0-0.917-1.944-0.553-1.944,0.195c0,7.312,0,14.625,0,21.937c0,0.34,0.286,0.527,0.617,0.527c1.724,0,3.448,0,5.173,0
						c0.379,0,1.327-0.172,1.327-0.723c0-7.313,0-14.624,0-21.937c0-0.34-0.286-0.527-0.617-0.527c-1.724,0-3.448,0-5.173,0
						C142.364,144.926,141.169,146.175,142.477,146.175z"/>
				</g>
			</g>
			<g id="rect4175">
				<rect x="150.406" y="145.55" fill="#FFFFFF" width="5.174" height="21.937"/>
				<g>
					<path fill="#E2001A" d="M150.051,146.177c1.005,0,2.011,0,3.017,0c0.66,0,1.32,0,1.98,0c-0.511,0-0.44-0.878-0.44-0.142
						c0,2.389,0,4.778,0,7.167c0,4.794,0,9.587,0,14.381c0.442-0.241,0.884-0.482,1.327-0.724c-1.005,0-2.011,0-3.017,0
						c-0.66,0-1.32,0-1.98,0c0.511,0,0.44,0.878,0.44,0.142c0-2.39,0-4.778,0-7.167c0-4.794,0-9.588,0-14.381
						c0-0.92-1.944-0.558-1.944,0.193c0,7.312,0,14.625,0,21.937c0,0.341,0.286,0.53,0.618,0.53c1.725,0,3.449,0,5.174,0
						c0.38,0,1.327-0.172,1.327-0.724c0-7.313,0-14.625,0-21.937c0-0.341-0.286-0.53-0.618-0.53c-1.725,0-3.449,0-5.174,0
						C149.935,144.923,148.744,146.177,150.051,146.177z"/>
				</g>
			</g>
			<g id="rect4177">
				<rect x="110.722" y="141.37" fill="#FFFFFF" width="5.173" height="21.94"/>
				<g>
					<path fill="#E2001A" d="M110.351,141.934c1.005,0,2.011,0,3.016,0c0.66,0,1.32,0,1.98,0c-0.494,0-0.418-0.75-0.418-0.059
						c0,2.39,0,4.779,0,7.168c0,4.794,0,9.589,0,14.383c0.446-0.227,0.893-0.453,1.339-0.68c-1.005,0-2.011,0-3.016,0
						c-0.66,0-1.32,0-1.98,0c0.494,0,0.418,0.75,0.418,0.059c0-2.39,0-4.779,0-7.169c0-4.794,0-9.588,0-14.383
						c0-0.832-1.935-0.423-1.935,0.232c0,7.313,0,14.627,0,21.94c0,0.331,0.291,0.447,0.596,0.447c1.724,0,3.449,0,5.173,0
						c0.336,0,1.339-0.178,1.339-0.68c0-7.313,0-14.627,0-21.94c0-0.331-0.291-0.447-0.596-0.447c-1.724,0-3.449,0-5.173,0
						C110.351,140.807,109.044,141.934,110.351,141.934z"/>
				</g>
			</g>
			<g id="rect4181">
				<rect x="39.712" y="141.37" fill="#FFFFFF" width="5.173" height="21.94"/>
				<g>
					<path fill="#E2001A" d="M39.624,142.067c1.724,0,3.449,0,5.173,0c-0.296-0.207-0.593-0.414-0.89-0.62c0,7.313,0,14.626,0,21.94
						c0.355-0.258,0.711-0.516,1.066-0.773c-1.724,0-3.449,0-5.173,0c0.296,0.207,0.593,0.414,0.89,0.621c0-7.313,0-14.627,0-21.941
						c0-1.004-1.956-0.701-1.956,0.153c0,7.313,0,14.626,0,21.94c0,0.505,0.468,0.621,0.89,0.621c1.724,0,3.449,0,5.173,0
						c0.373,0,1.066-0.319,1.066-0.773c0-7.313,0-14.627,0-21.941c0-0.504-0.468-0.62-0.89-0.62c-1.724,0-3.449,0-5.173,0
						C38.705,140.673,38.312,142.067,39.624,142.067z"/>
				</g>
			</g>
			<g id="rect4183">
				<rect x="48.298" y="141.37" fill="#FFFFFF" width="5.171" height="21.94"/>
				<g>
					<path fill="#E2001A" d="M47.941,141.986c1.005,0,2.01,0,3.015,0c0.66,0,1.319,0,1.979,0c-0.508,0-0.437-0.857-0.437-0.127
						c0,2.39,0,4.779,0,7.168c0,4.794,0,9.589,0,14.383c0.443-0.238,0.886-0.478,1.329-0.716c-1.005,0-2.01,0-3.015,0
						c-0.66,0-1.319,0-1.979,0c0.508,0,0.437,0.856,0.437,0.128c0-2.39,0-4.779,0-7.169c0-4.794,0-9.589,0-14.383
						c0-0.906-1.943-0.535-1.943,0.2c0,7.313,0,14.626,0,21.94c0,0.34,0.287,0.517,0.614,0.517c1.724,0,3.447,0,5.171,0
						c0.373,0,1.329-0.173,1.329-0.716c0-7.313,0-14.627,0-21.941c0-0.339-0.287-0.516-0.614-0.516c-1.724,0-3.447,0-5.171,0
						C47.844,140.754,46.633,141.986,47.941,141.986z"/>
				</g>
			</g>
			<g id="rect4185">
				<rect x="223.921" y="122.568" fill="#FFFFFF" width="5.174" height="21.937"/>
				<g>
					<path fill="#E2001A" d="M223.564,123.187c1.005,0,2.011,0,3.017,0c0.66,0,1.32,0,1.98,0c-0.509,0-0.438-0.862-0.438-0.131
						c0,2.389,0,4.778,0,7.167c0,4.793,0,9.587,0,14.381c0.443-0.239,0.886-0.479,1.329-0.718c-1.005,0-2.011,0-3.017,0
						c-0.66,0-1.32,0-1.98,0c0.509,0,0.438,0.862,0.438,0.131c0-2.389,0-4.778,0-7.167c0-4.793,0-9.587,0-14.381
						c0-0.909-1.943-0.541-1.943,0.198c0,7.313,0,14.625,0,21.937c0,0.34,0.287,0.52,0.615,0.52c1.725,0,3.449,0,5.174,0
						c0.375,0,1.329-0.172,1.329-0.718c0-7.313,0-14.625,0-21.937c0-0.34-0.287-0.52-0.615-0.52c-1.725,0-3.449,0-5.174,0
						C223.463,121.949,222.257,123.187,223.564,123.187z"/>
				</g>
			</g>
			<g id="rect4111">
				<rect x="-30.25" y="3.899" opacity="0" fill="#0E242F" width="351.337" height="296.882"/>
				<g>
					<path fill="#E2001A" d="M-30.341,4.59c37.68,0,75.36,0,113.041,0c62.122,0,124.243,0,186.364,0c16.358,0,32.716,0,49.074,0
						c0.941,0,1.883,0,2.825,0c-0.897,0-0.854-1.102-0.854-0.172c0,0.616,0,1.231,0,1.846c0,6.323,0,12.646,0,18.97
						c0,58.757,0,117.515,0,176.272c0,26.032,0,52.064,0,78.097c0,6.323,0,12.646,0,18.97c0,0.585,0,1.17,0,1.754
						c0,1.136-0.076-0.235,1.034-0.235c-0.942,0-1.883,0-2.825,0c-45.7,0-91.4,0-137.1,0c-59.448,0-118.896,0-178.344,0
						c-8.06,0-16.119,0-24.179,0c-2.189,0-4.378,0-6.567,0c-0.553,0-1.106,0-1.66,0c-1.272,0,0.259-0.101,0.259,0.607
						c0-12.925,0-25.85,0-38.774c0-61.456,0-122.912,0-184.368c0-24.578,0-49.157,0-73.735c0-0.998-1.955-0.689-1.955,0.156
						c0,41.853,0,83.705,0,125.558c0,54.167,0,108.334,0,162.501c0,2.941,0,5.882,0,8.823c0,0.503,0.469,0.612,0.887,0.612
						c37.68,0,75.36,0,113.041,0c62.122,0,124.243,0,186.364,0c17.311,0,34.622,0,51.933,0c0.369,0,1.068-0.316,1.068-0.769
						c0-41.853,0-83.705,0-125.558c0-54.167,0-108.334,0-162.502c0-2.941,0-5.882,0-8.823c0-0.503-0.469-0.613-0.887-0.613
						c-37.68,0-75.36,0-113.041,0c-62.122,0-124.243,0-186.364,0c-17.311,0-34.622,0-51.933,0
						C-31.252,3.208-31.653,4.59-30.341,4.59z"/>
				</g>
			</g>
		</g>
	</g>
	<g>
		<title  id="title4113">Buildings  icon</title>
		
			<sodipodi:namedview  id="base" inkscape:window-maximized="1" inkscape:window-y="-4" inkscape:window-x="-4" inkscape:window-height="712" inkscape:window-width="1280" inkscape:grid-bbox="true" inkscape:document-units="px" inkscape:current-layer="layer1" inkscape:pageshadow="2" inkscape:pageopacity="0.0" inkscape:cx="32" inkscape:zoom="5.5" borderopacity="1.0" bordercolor="#666666" showgrid="true" pagecolor="#ffffff" inkscape:cy="32">
			</sodipodi:namedview>
		<g id="layer1_1_" inkscape:groupmode="layer" inkscape:label="Layer 1">
			<g id="rect4116_1_" inkscape:connector-curvature="0" sodipodi:nodetypes="ccccccccccccccccccc">
				<path fill="#0E242F" d="M286.475,44.219v87.748h-37.178v109.677c100.84,0,170.275,4.657,284.761,0.014V119.438h-27.885V93.317
					h-59.147v48.051H436.88V68.25h-40.557v31.331h-51.537v48.065h-23.663V44.219H286.475z"/>
				<g>
					<path fill="#E2001A" d="M285.509,44.478c0,29.249,0,58.499,0,87.748c0.458-0.227,0.917-0.453,1.375-0.68
						c-12.393,0-24.785,0-37.178,0c-0.338,0-1.375,0.208-1.375,0.68c0,36.559,0,73.118,0,109.677c0,0.192,0.466,0.162,0.556,0.162
						c94.974,0.025,189.799,3.83,284.761,0.014c0.339-0.014,1.375-0.198,1.375-0.68c0-40.74,0-81.479,0-122.219
						c0-0.193-0.466-0.163-0.557-0.163c-9.233,0-18.467,0-27.7,0c0.662,0,0.372-2.008,0.372-3.209c0-2.903,0-5.806,0-8.709
						c0-4.68,0-9.359,0-14.039c0-0.193-0.466-0.163-0.557-0.163c-19.715,0-39.432,0-59.146,0c-0.338,0-1.376,0.208-1.376,0.68
						c0,16.017,0,32.034,0,48.051c0.458-0.227,0.917-0.453,1.376-0.68c-3.345,0-6.688,0-10.032,0c0.896,0,0.442-3.01,0.442-4.028
						c0-8.149,0-16.299,0-24.448c0-14.827,0-29.653,0-44.479c0-0.193-0.466-0.163-0.557-0.163c-13.519,0-27.037,0-40.556,0
						c-0.338,0-1.375,0.208-1.375,0.68c0,10.443,0,20.887,0,31.331c0.458-0.227,0.917-0.453,1.375-0.68c-17.179,0-34.358,0-51.537,0
						c-0.338,0-1.375,0.208-1.375,0.68c0,16.022,0,32.043,0,48.065c0.458-0.227,0.917-0.453,1.375-0.68c-5.545,0-11.09,0-16.635,0
						c-2.325,0-4.649,0-6.975,0c0.839,0,0.502-0.591,0.502-1.579c0-10.796,0-21.593,0-32.389c0-23.099,0-46.198,0-69.297
						c0-0.193-0.466-0.163-0.556-0.163c-11.549,0-23.099,0-34.648,0c-0.558,0-2.107,0.843-0.819,0.843c11.5,0,22.999,0,34.499,0
						c-0.593,0-0.406,0.225-0.406,1.308c0,1.707,0,3.414,0,5.121c0,5.871,0,11.741,0,17.611c0,26.207,0,52.413,0,78.619
						c0,0.202,0,0.404,0,0.606c0,0.193,0.466,0.163,0.556,0.163c7.888,0,15.775,0,23.663,0c0.338,0,1.375-0.208,1.375-0.68
						c0-16.022,0-32.043,0-48.065c-0.458,0.227-0.917,0.453-1.375,0.68c17.179,0,34.358,0,51.537,0c0.338,0,1.375-0.208,1.375-0.68
						c0-10.443,0-20.887,0-31.331c-0.458,0.227-0.917,0.453-1.375,0.68c10.401,0,20.802,0,31.204,0c2.321,0,4.644,0,6.965,0
						c0.629,0,1.259,0,1.888,0c0.889,0-0.056-0.226-0.056-0.002c0,3.151,0,6.302,0,9.454c0,21.168,0,42.336,0,63.504
						c0,0.193,0.466,0.163,0.557,0.163c3.381,0,6.764,0,10.145,0c0.338,0,1.376-0.208,1.376-0.68c0-16.017,0-32.034,0-48.051
						c-0.458,0.227-0.917,0.453-1.376,0.68c15.923,0,31.846,0,47.769,0c3.229,0,6.458,0,9.688,0c0.557,0,1.113,0,1.67,0
						c-0.974,0-0.534,1.536-0.534,2.554c0,7.801,0,15.603,0,23.404c0,0.193,0.466,0.163,0.557,0.163c5.959,0,11.918,0,17.877,0
						c2.973,0,5.944,0,8.916,0c1.334,0,0.535-0.51,0.535,0.686c0,9.597,0,19.194,0,28.792c0,28.808,0,57.615,0,86.424
						c0,2.052,0,4.104,0,6.155c0.458-0.227,0.917-0.453,1.375-0.68c-56.774,2.281-113.546,2.328-170.349,1.385
						c-26.177-0.435-52.352-0.952-78.531-1.216c-3.208-0.032-35.324-0.217-35.324-0.211c0-2.928,0-5.855,0-8.782
						c0-33.568,0-67.137,0-100.704c-0.458,0.227-0.917,0.453-1.375,0.68c12.393,0,24.785,0,37.178,0c0.338,0,1.375-0.208,1.375-0.68
						c0-29.249,0-58.499,0-87.748C287.44,43.585,285.509,43.882,285.509,44.478z"/>
				</g>
			</g>
			<g id="rect4139_1_">
				<rect x="490.018" y="106.901" fill="#FFFFFF" width="5.174" height="21.936"/>
				<g>
					<path fill="#E2001A" d="M495.271,128.11c-1.725,0-3.449,0-5.174,0c0.301,0.22,0.6,0.439,0.9,0.658c0-7.312,0-14.624,0-21.936
						c-0.354,0.265-0.707,0.53-1.061,0.795c1.725,0,3.449,0,5.174,0c-0.301-0.22-0.6-0.439-0.9-0.658c0,7.312,0,14.624,0,21.936
						c0,1.036,1.961,0.759,1.961-0.137c0-7.312,0-14.624,0-21.936c0-0.511-0.464-0.658-0.9-0.658c-1.725,0-3.449,0-5.174,0
						c-0.39,0-1.061,0.33-1.061,0.795c0,7.312,0,14.624,0,21.936c0,0.511,0.464,0.658,0.9,0.658c1.725,0,3.449,0,5.174,0
						C496.229,129.563,496.581,128.11,495.271,128.11z"/>
				</g>
			</g>
			<g id="rect4141_1_">
				<rect x="482.442" y="106.901" fill="#FFFFFF" width="5.173" height="21.936"/>
				<g>
					<path fill="#E2001A" d="M488.024,128.413c-1.006,0-2.011,0-3.016,0c-0.66,0-1.32,0-1.98,0c0.478,0,0.38,0.264,0.38-0.224
						c0-2.389,0-4.778,0-7.167c0-4.793,0-9.586,0-14.38c-0.458,0.228-0.916,0.455-1.375,0.683c1.006,0,2.011,0,3.016,0
						c0.66,0,1.32,0,1.98,0c-0.478,0-0.38-0.264-0.38,0.224c0,2.389,0,4.778,0,7.167c0,4.793,0,9.586,0,14.38
						c0,0.38,1.932,0.082,1.932-0.518c0-7.312,0-14.624,0-21.936c0-0.194-0.466-0.165-0.557-0.165c-1.725,0-3.449,0-5.173,0
						c-0.341,0-1.375,0.208-1.375,0.683c0,7.312,0,14.624,0,21.936c0,0.194,0.466,0.165,0.557,0.165c1.725,0,3.449,0,5.173,0
						C487.767,129.26,489.313,128.413,488.024,128.413z"/>
				</g>
			</g>
			<g id="rect4143_1_">
				<rect x="473.857" y="106.901" fill="#FFFFFF" width="5.173" height="21.936"/>
				<g>
					<path fill="#E2001A" d="M479.379,128.187c-1.006,0-2.011,0-3.016,0c-0.66,0-1.32,0-1.98,0c0.518,0,0.449,0.923,0.449,0.171
						c0-2.389,0-4.778,0-7.167c0-4.793,0-9.587,0-14.38c-0.441,0.247-0.882,0.493-1.323,0.739c1.006,0,2.011,0,3.016,0
						c0.66,0,1.32,0,1.979,0c-0.517,0-0.448-0.923-0.448-0.171c0,2.389,0,4.778,0,7.167c0,4.793,0,9.587,0,14.38
						c0,0.95,1.949,0.607,1.949-0.18c0-7.312,0-14.624,0-21.936c0-0.343-0.285-0.56-0.626-0.56c-1.725,0-3.449,0-5.173,0
						c-0.396,0-1.323,0.17-1.323,0.739c0,7.312,0,14.624,0,21.936c0,0.343,0.285,0.56,0.626,0.56c1.725,0,3.448,0,5.173,0
						C479.537,129.486,480.686,128.187,479.379,128.187z"/>
				</g>
			</g>
			<g id="rect4153_1_">
				<rect x="387.773" y="115.258" fill="#FFFFFF" width="5.172" height="21.936"/>
				<g>
					<path fill="#E2001A" d="M393.572,136.801c-1.005,0-2.01,0-3.015,0c-1.02,0-1.818,0.351-1.818-0.255c0-2.389,0-4.778,0-7.167
						c0-4.793,0-9.586,0-14.38c-0.531,0.217-1.062,0.434-1.593,0.651c1.005,0,2.01,0,3.015,0c1.02,0,1.818-0.351,1.818,0.255
						c0,2.389,0,4.778,0,7.167c0,4.793,0,9.586,0,14.38c0,0.312,1.932,0.034,1.932-0.518c0-7.312,0-14.624,0-21.936
						c0-0.118-0.284-0.134-0.339-0.134c-1.724,0-3.448,0-5.172,0c-0.338,0-1.593,0.145-1.593,0.651c0,7.312,0,14.624,0,21.936
						c0,0.118,0.284,0.134,0.339,0.134c1.724,0,3.448,0,5.172,0C392.72,137.586,394.519,136.801,393.572,136.801z"/>
				</g>
			</g>
			<g id="rect4155_1_">
				<rect x="380.201" y="115.258" fill="#FFFFFF" width="5.17" height="21.936"/>
				<g>
					<path fill="#E2001A" d="M385.753,136.668c-1.005,0-2.009,0-3.014,0c-0.659,0-1.319,0-1.979,0c0.498,0,0.407,0.45,0.407-0.123
						c0-2.389,0-4.778,0-7.167c0-4.793,0-9.586,0-14.38c-0.449,0.261-0.898,0.522-1.348,0.784c1.005,0,2.009,0,3.014,0
						c0.659,0,1.319,0,1.979,0c-0.498,0-0.407-0.45-0.407,0.123c0,2.389,0,4.778,0,7.167c0,4.793,0,9.586,0,14.38
						c0,0.562,1.932,0.207,1.932-0.518c0-7.312,0-14.624,0-21.936c0-0.226-0.448-0.266-0.584-0.266c-1.723,0-3.447,0-5.17,0
						c-0.448,0-1.348,0.207-1.348,0.784c0,7.312,0,14.624,0,21.936c0,0.226,0.448,0.266,0.584,0.266c1.723,0,3.447,0,5.17,0
						C385.681,137.718,387.057,136.668,385.753,136.668z"/>
				</g>
			</g>
			<g id="rect4157_1_">
				<rect x="371.612" y="115.258" fill="#FFFFFF" width="5.173" height="21.936"/>
				<g>
					<path fill="#E2001A" d="M377.194,136.771c-1.005,0-2.01,0-3.016,0c-0.66,0-1.32,0-1.98,0c0.477,0,0.379,0.262,0.379-0.225
						c0-2.389,0-4.778,0-7.167c0-4.793,0-9.586,0-14.38c-0.458,0.227-0.917,0.455-1.375,0.682c1.005,0,2.01,0,3.016,0
						c0.66,0,1.32,0,1.98,0c-0.477,0-0.379-0.262-0.379,0.225c0,2.389,0,4.778,0,7.167c0,4.793,0,9.586,0,14.38
						c0,0.379,1.932,0.081,1.932-0.518c0-7.312,0-14.624,0-21.936c0-0.193-0.466-0.164-0.557-0.164c-1.724,0-3.449,0-5.173,0
						c-0.339,0-1.375,0.208-1.375,0.682c0,7.312,0,14.624,0,21.936c0,0.193,0.466,0.164,0.557,0.164c1.724,0,3.449,0,5.173,0
						C376.936,137.616,378.483,136.771,377.194,136.771z"/>
				</g>
			</g>
			<g id="rect4159_1_">
				<rect x="305.813" y="56.761" fill="#FFFFFF" width="5.168" height="21.937"/>
				<g>
					<path fill="#E2001A" d="M311.608,78.309c-1.004,0-2.009,0-3.013,0c-1.015,0-1.817,0.353-1.817-0.259c0-2.389,0-4.778,0-7.167
						c0-4.794,0-9.587,0-14.381c-0.531,0.216-1.063,0.432-1.594,0.647c1.004,0,2.009,0,3.013,0c1.015,0,1.817-0.353,1.817,0.259
						c0,2.389,0,4.778,0,7.167c0,4.794,0,9.587,0,14.381c0,0.302,1.932,0.028,1.932-0.518c0-7.312,0-14.625,0-21.937
						c0-0.117-0.285-0.13-0.338-0.13c-1.723,0-3.445,0-5.168,0c-0.333,0-1.594,0.149-1.594,0.647c0,7.312,0,14.625,0,21.937
						c0,0.117,0.285,0.13,0.338,0.13c1.723,0,3.445,0,5.168,0C310.75,79.086,312.551,78.309,311.608,78.309z"/>
				</g>
			</g>
			<g id="rect4161_1_">
				<rect x="298.232" y="56.761" fill="#FFFFFF" width="5.178" height="21.937"/>
				<g>
					<path fill="#E2001A" d="M303.494,77.983c-1.726,0-3.452,0-5.178,0c0.298,0.214,0.597,0.428,0.895,0.642
						c0-7.312,0-14.625,0-21.937c-0.354,0.262-0.708,0.524-1.063,0.786c1.726,0,3.452,0,5.178,0
						c-0.298-0.214-0.597-0.428-0.895-0.642c0,7.312,0,14.625,0,21.937c0,1.022,1.958,0.735,1.958-0.144c0-7.312,0-14.625,0-21.937
						c0-0.508-0.465-0.642-0.895-0.642c-1.726,0-3.452,0-5.178,0c-0.383,0-1.063,0.325-1.063,0.786c0,7.312,0,14.625,0,21.937
						c0,0.508,0.465,0.642,0.895,0.642c1.726,0,3.452,0,5.178,0C304.436,79.411,304.804,77.983,303.494,77.983z"/>
				</g>
			</g>
			<g id="rect4165_1_">
				<rect x="304.965" y="89.144" fill="#FFFFFF" width="5.168" height="21.934"/>
				<g>
					<path fill="#E2001A" d="M310.753,110.66c-1.004,0-2.008,0-3.013,0c-1.051,0-1.81,0.342-1.81-0.23c0-2.389,0-4.777,0-7.166
						c0-4.793,0-9.586,0-14.379c-0.529,0.226-1.057,0.451-1.586,0.676c1.004,0,2.008,0,3.013,0c1.051,0,1.81-0.342,1.81,0.23
						c0,2.389,0,4.777,0,7.166c0,4.793,0,9.586,0,14.379c0,0.368,1.932,0.073,1.932-0.518c0-7.311,0-14.623,0-21.934
						c0-0.125-0.279-0.159-0.346-0.159c-1.723,0-3.445,0-5.168,0c-0.37,0-1.586,0.125-1.586,0.676c0,7.311,0,14.623,0,21.934
						c0,0.125,0.279,0.159,0.346,0.159c1.723,0,3.445,0,5.168,0C309.946,111.495,311.724,110.66,310.753,110.66z"/>
				</g>
			</g>
			<g id="rect4167_1_">
				<rect x="297.391" y="89.144" fill="#FFFFFF" width="5.172" height="21.934"/>
				<g>
					<path fill="#E2001A" d="M302.645,110.356c-1.724,0-3.448,0-5.172,0c0.299,0.217,0.599,0.435,0.897,0.651
						c0-7.311,0-14.623,0-21.934c-0.354,0.264-0.708,0.527-1.062,0.791c1.724,0,3.448,0,5.172,0
						c-0.299-0.217-0.599-0.435-0.897-0.651c0,7.311,0,14.623,0,21.934c0,1.03,1.959,0.749,1.959-0.14c0-7.311,0-14.623,0-21.934
						c0-0.51-0.464-0.651-0.897-0.651c-1.724,0-3.448,0-5.172,0c-0.387,0-1.062,0.328-1.062,0.791c0,7.311,0,14.623,0,21.934
						c0,0.51,0.464,0.651,0.897,0.651c1.724,0,3.448,0,5.172,0C303.595,111.799,303.954,110.356,302.645,110.356z"/>
				</g>
			</g>
			<g id="rect4169_1_">
				<rect x="420.729" y="104.811" fill="#FFFFFF" width="5.171" height="21.937"/>
				<g>
					<path fill="#E2001A" d="M426.276,126.201c-1.005,0-2.01,0-3.015,0c-0.66,0-1.319,0-1.979,0c0.502,0,0.413,0.49,0.413-0.1
						c0-2.389,0-4.778,0-7.167c0-4.793,0-9.587,0-14.381c-0.447,0.269-0.895,0.538-1.342,0.806c1.005,0,2.01,0,3.015,0
						c0.66,0,1.319,0,1.979,0c-0.502,0-0.413-0.49-0.413,0.1c0,2.389,0,4.778,0,7.167c0,4.793,0,9.587,0,14.381
						c0,0.601,1.932,0.233,1.932-0.518c0-7.313,0-14.625,0-21.937c0-0.231-0.445-0.289-0.59-0.289c-1.724,0-3.447,0-5.171,0
						c-0.472,0-1.342,0.209-1.342,0.806c0,7.313,0,14.625,0,21.937c0,0.231,0.445,0.289,0.59,0.289c1.724,0,3.447,0,5.171,0
						C426.246,127.295,427.582,126.201,426.276,126.201z"/>
				</g>
			</g>
			<g id="rect4171_1_">
				<rect x="413.154" y="104.811" fill="#FFFFFF" width="5.171" height="21.937"/>
				<g>
					<path fill="#E2001A" d="M418.684,126.137c-1.005,0-2.01,0-3.015,0c-0.659,0-1.319,0-1.979,0c0.507,0,0.435,0.847,0.435,0.121
						c0-2.389,0-4.778,0-7.167c0-4.794,0-9.587,0-14.381c-0.443,0.238-0.886,0.476-1.329,0.713c1.005,0,2.01,0,3.015,0
						c0.659,0,1.319,0,1.979,0c-0.507,0-0.435-0.847-0.435-0.121c0,2.389,0,4.778,0,7.167c0,4.793,0,9.587,0,14.381
						c0,0.899,1.941,0.525,1.941-0.203c0-7.313,0-14.625,0-21.937c0-0.338-0.286-0.51-0.612-0.51c-1.724,0-3.447,0-5.171,0
						c-0.369,0-1.329,0.173-1.329,0.713c0,7.313,0,14.625,0,21.937c0,0.338,0.287,0.51,0.612,0.51c1.724,0,3.447,0,5.171,0
						C418.772,127.359,419.991,126.137,418.684,126.137z"/>
				</g>
			</g>
			<g id="rect4173_1_">
				<rect x="386.929" y="145.55" fill="#FFFFFF" width="5.173" height="21.937"/>
				<g>
					<path fill="#E2001A" d="M392.476,166.934c-1.005,0-2.01,0-3.016,0c-0.66,0-1.32,0-1.98,0c0.491,0,0.415,0.729,0.415,0.046
						c0-2.389,0-4.778,0-7.167c0-4.794,0-9.588,0-14.381c-0.447,0.224-0.894,0.449-1.34,0.673c1.005,0,2.01,0,3.016,0
						c0.66,0,1.32,0,1.98,0c-0.491,0-0.415-0.73-0.415-0.046c0,2.389,0,4.778,0,7.167c0,4.794,0,9.587,0,14.381
						c0,0.817,1.933,0.402,1.933-0.238c0-7.313,0-14.625,0-21.937c0-0.329-0.292-0.435-0.592-0.435c-1.724,0-3.449,0-5.173,0
						c-0.329,0-1.34,0.18-1.34,0.673c0,7.312,0,14.625,0,21.937c0,0.329,0.292,0.435,0.592,0.435c1.724,0,3.449,0,5.173,0
						C392.458,168.041,393.782,166.934,392.476,166.934z"/>
				</g>
			</g>
			<g id="rect4175_1_">
				<rect x="379.354" y="145.55" fill="#FFFFFF" width="5.174" height="21.937"/>
				<g>
					<path fill="#E2001A" d="M384.934,167.055c-1.005,0-2.011,0-3.017,0c-0.66,0-1.32,0-1.98,0c0.479,0,0.382,0.28,0.382-0.215
						c0-2.389,0-4.778,0-7.167c0-4.794,0-9.588,0-14.381c-0.458,0.23-0.915,0.461-1.373,0.691c1.005,0,2.011,0,3.017,0
						c0.66,0,1.32,0,1.98,0c-0.479,0-0.382-0.28-0.382,0.215c0,2.389,0,4.778,0,7.167c0,4.794,0,9.587,0,14.381
						c0,0.396,1.932,0.093,1.932-0.518c0-7.313,0-14.625,0-21.937c0-0.197-0.464-0.174-0.559-0.174c-1.725,0-3.449,0-5.174,0
						c-0.35,0-1.373,0.207-1.373,0.691c0,7.312,0,14.625,0,21.937c0,0.197,0.464,0.174,0.559,0.174c1.725,0,3.449,0,5.174,0
						C384.693,167.92,386.225,167.055,384.934,167.055z"/>
				</g>
			</g>
			<g id="rect4177_1_">
				<rect x="419.038" y="141.37" fill="#FFFFFF" width="5.173" height="21.94"/>
				<g>
					<path fill="#E2001A" d="M424.84,162.927c-1.005,0-2.01,0-3.016,0c-1.009,0-1.82,0.354-1.82-0.264c0-2.39,0-4.779,0-7.169
						c0-4.794,0-9.588,0-14.383c-0.531,0.214-1.063,0.429-1.595,0.643c1.005,0,2.011,0,3.016,0c1.009,0,1.82-0.354,1.82,0.263
						c0,2.39,0,4.779,0,7.168c0,4.794,0,9.589,0,14.383c0,0.292,1.932,0.021,1.932-0.518c0-7.313,0-14.627,0-21.94
						c0-0.116-0.285-0.125-0.337-0.125c-1.724,0-3.448,0-5.173,0c-0.327,0-1.595,0.152-1.595,0.643c0,7.313,0,14.627,0,21.94
						c0,0.116,0.285,0.125,0.337,0.125c1.724,0,3.448,0,5.173,0C423.974,163.694,425.778,162.927,424.84,162.927z"/>
				</g>
			</g>
			<g id="rect4181_1_">
				<rect x="490.047" y="141.37" fill="#FFFFFF" width="5.174" height="21.94"/>
				<g>
					<path fill="#E2001A" d="M495.855,162.947c-1.006,0-2.011,0-3.017,0c-0.985,0-1.826,0.361-1.826-0.284c0-2.39,0-4.779,0-7.169
						c0-4.794,0-9.588,0-14.383c-0.533,0.208-1.067,0.415-1.601,0.622c1.006,0,2.011,0,3.017,0c0.985,0,1.826-0.362,1.826,0.284
						c0,2.39,0,4.779,0,7.168c0,4.794,0,9.589,0,14.383c0,0.244,1.932-0.013,1.932-0.518c0-7.313,0-14.627,0-21.94
						c0-0.109-0.29-0.104-0.331-0.104c-1.725,0-3.449,0-5.174,0c-0.303,0-1.601,0.17-1.601,0.622c0,7.313,0,14.627,0,21.94
						c0,0.109,0.29,0.104,0.331,0.104c1.725,0,3.449,0,5.174,0C494.953,163.674,496.773,162.947,495.855,162.947z"/>
				</g>
			</g>
			<g id="rect4183_1_">
				<rect x="481.464" y="141.37" fill="#FFFFFF" width="5.171" height="21.94"/>
				<g>
					<path fill="#E2001A" d="M487.268,162.939c-1.005,0-2.01,0-3.015,0c-0.994,0-1.823,0.358-1.823-0.276c0-2.39,0-4.779,0-7.169
						c0-4.794,0-9.588,0-14.383c-0.533,0.21-1.065,0.42-1.599,0.63c1.005,0,2.01,0,3.015,0c0.994,0,1.823-0.359,1.823,0.276
						c0,2.39,0,4.779,0,7.168c0,4.794,0,9.589,0,14.383c0,0.263,1.932,0,1.932-0.518c0-7.313,0-14.627,0-21.94
						c0-0.112-0.288-0.112-0.333-0.112c-1.724,0-3.447,0-5.171,0c-0.313,0-1.599,0.163-1.599,0.63c0,7.313,0,14.627,0,21.94
						c0,0.112,0.288,0.112,0.333,0.112c1.724,0,3.447,0,5.171,0C486.379,163.682,488.193,162.939,487.268,162.939z"/>
				</g>
			</g>
			<g id="rect4185_1_">
				<rect x="305.838" y="122.568" fill="#FFFFFF" width="5.174" height="21.937"/>
				<g>
					<path fill="#E2001A" d="M311.362,143.864c-1.005,0-2.011,0-3.016,0c-0.66,0-1.32,0-1.98,0c0.515,0,0.445,0.906,0.445,0.16
						c0-2.389,0-4.778,0-7.167c0-4.793,0-9.587,0-14.381c-0.441,0.245-0.883,0.489-1.324,0.733c1.005,0,2.011,0,3.016,0
						c0.66,0,1.32,0,1.98,0c-0.515,0-0.445-0.906-0.445-0.16c0,2.389,0,4.778,0,7.167c0,4.793,0,9.587,0,14.381
						c0,0.939,1.947,0.589,1.947-0.185c0-7.313,0-14.625,0-21.937c0-0.342-0.286-0.549-0.623-0.549c-1.725,0-3.449,0-5.174,0
						c-0.391,0-1.324,0.17-1.324,0.733c0,7.313,0,14.625,0,21.937c0,0.342,0.286,0.549,0.623,0.549c1.725,0,3.449,0,5.174,0
						C311.505,145.146,312.669,143.864,311.362,143.864z"/>
				</g>
			</g>
			<g id="rect4111_1_">
				<rect x="213.014" y="3.118" opacity="0" fill="#0E242F" width="351.336" height="296.882"/>
				<g>
					<path fill="#E2001A" d="M564.757,299.568c-37.681,0-75.36,0-113.04,0c-62.122,0-124.243,0-186.364,0
						c-16.358,0-32.715,0-49.073,0c-0.942,0-1.884,0-2.825,0c0.906,0,0.525-0.944,0.525-2.114c0-6.323,0-12.646,0-18.97
						c0-58.758,0-117.515,0-176.272c0-33.118,0-66.236,0-99.354c-0.458,0.23-0.915,0.46-1.373,0.69c37.68,0,75.36,0,113.04,0
						c62.121,0,124.243,0,186.364,0c16.357,0,32.715,0,49.073,0c0.941,0,1.883,0,2.825,0c-0.906,0-0.525,0.944-0.525,2.114
						c0,6.323,0,12.646,0,18.97c0,58.757,0,117.515,0,176.272c0,33.118,0,66.235,0,99.354c0,0.396,1.932,0.092,1.932-0.518
						c0-41.853,0-83.705,0-125.558c0-54.167,0-108.334,0-162.502c0-2.941,0-5.882,0-8.823c0-0.197-0.464-0.173-0.559-0.173
						c-37.681,0-75.36,0-113.04,0c-62.122,0-124.243,0-186.364,0c-17.311,0-34.622,0-51.933,0c-0.349,0-1.373,0.207-1.373,0.69
						c0,41.853,0,83.705,0,125.558c0,54.167,0,108.334,0,162.501c0,2.941,0,5.882,0,8.823c0,0.197,0.464,0.173,0.559,0.173
						c37.68,0,75.36,0,113.04,0c62.121,0,124.243,0,186.364,0c17.311,0,34.621,0,51.932,0
						C564.514,300.432,566.047,299.568,564.757,299.568z"/>
				</g>
			</g>
		</g>
	</g>
	<g>
		<title  id="title4113">Buildings  icon</title>
		
			<sodipodi:namedview  id="base" inkscape:window-maximized="1" inkscape:window-y="-4" inkscape:window-x="-4" inkscape:window-height="712" inkscape:window-width="1280" inkscape:grid-bbox="true" inkscape:document-units="px" inkscape:current-layer="layer1" inkscape:pageshadow="2" inkscape:pageopacity="0.0" inkscape:cx="32" inkscape:zoom="5.5" borderopacity="1.0" bordercolor="#666666" showgrid="true" pagecolor="#ffffff" inkscape:cy="32">
			</sodipodi:namedview>
		<g id="layer1_2_" inkscape:groupmode="layer" inkscape:label="Layer 1">
			<g id="rect4116_2_" inkscape:connector-curvature="0" sodipodi:nodetypes="ccccccccccccccccccc">
				<path fill="#0E242F" d="M747.494,44.219v103.427H723.83V99.581h-51.537V68.25h-40.557v73.118h-10.146V93.317h-59.147v26.121
					h-27.885v122.219c114.486,4.644,183.922-0.014,284.762-0.014V131.967h-37.178V44.219H747.494z"/>
				<g>
					<path fill="#E2001A" d="M746.526,44.333c0,34.476,0,68.951,0,103.427c0.445-0.229,0.892-0.457,1.337-0.686
						c-6.655,0-13.311,0-19.967,0c-1.077,0-2.154,0-3.231,0c-0.618,0,0.133,0.849,0.133-0.187c0-2.476,0-4.952,0-7.428
						c0-13.331,0-26.662,0-39.992c0-0.333-0.29-0.458-0.599-0.458c-15.307,0-30.614,0-45.921,0c-1.863,0-3.728,0-5.591,0
						c0.711,0,0.573,0.784,0.573-0.184c0-0.591,0-1.181,0-1.772c0-2.002,0-4.004,0-6.006c0-7.637,0-15.273,0-22.91
						c0-0.333-0.29-0.458-0.599-0.458c-13.519,0-27.038,0-40.557,0c-0.342,0-1.337,0.177-1.337,0.686c0,24.373,0,48.745,0,73.118
						c0.445-0.229,0.892-0.457,1.337-0.686c-2.598,0-5.195,0-7.792,0c-0.473,0-0.945,0-1.417,0c-1.27,0-0.338-0.157-0.338,0.432
						c0-0.404,0-0.809,0-1.214c0-5.161,0-10.323,0-15.484c0-10.442,0-20.884,0-31.327c0-0.333-0.29-0.458-0.599-0.458
						c-19.716,0-39.432,0-59.147,0c-0.342,0-1.337,0.177-1.337,0.686c0,8.707,0,17.414,0,26.121
						c0.445-0.229,0.892-0.457,1.337-0.686c-9.295,0-18.59,0-27.885,0c-0.342,0-1.337,0.177-1.337,0.686
						c0,40.739,0,81.479,0,122.219c0,0.342,0.29,0.446,0.599,0.459c94.961,3.815,189.788,0.012,284.762-0.014
						c0.342,0,1.337-0.178,1.337-0.686c0-36.56,0-73.118,0-109.677c0-0.333-0.29-0.458-0.599-0.458c-11.348,0-22.696,0-34.045,0
						c-0.766,0-1.531,0-2.297,0c-1.255,0-0.237-0.092-0.237,0.399c0-0.897,0-1.795,0-2.692c0-4.959,0-9.918,0-14.877
						c0-23.373,0-46.746,0-70.119c0-0.333-0.29-0.458-0.599-0.458c-11.55,0-23.099,0-34.648,0c-0.754,0-2.046,1.145-0.738,1.145
						c10.978,0,21.956,0,32.934,0c0.521,0,1.043,0,1.564,0c-0.047,0-0.448-0.816-0.448-0.09c0,1.208,0,2.416,0,3.623
						c0,5.1,0,10.199,0,15.298c0,22.819,0,45.639,0,68.458c0,0.333,0.29,0.458,0.599,0.458c11.996,0,23.992,0,35.988,0
						c1.599,0,0.591-0.759,0.591,0.117c0,1.29,0,2.579,0,3.868c0,5.193,0,10.387,0,15.581c0,28.402,0,56.806,0,85.209
						c0,1.481,0,2.963,0,4.443c0.445-0.229,0.892-0.457,1.337-0.686c-53.029,0.015-106.038,1.558-159.063,1.979
						c-27.941,0.223-55.885,0.047-83.819-0.611c-3.805-0.089-41.281-1.185-41.281-1.066c0-2.66,0-5.32,0-7.98
						c0-38.022,0-76.046,0-114.068c-0.445,0.229-0.892,0.457-1.337,0.686c9.295,0,18.59,0,27.885,0c0.342,0,1.337-0.177,1.337-0.686
						c0-8.707,0-17.414,0-26.121c-0.445,0.229-0.892,0.457-1.337,0.686c19.151,0,38.304,0,57.455,0c0.448,0,0.896,0,1.345,0
						c0.741,0-0.251-0.305-0.251-0.353c0,1.121,0,2.242,0,3.362c0,5.379,0,10.758,0,16.137c0,9.482,0,18.964,0,28.446
						c0,0.333,0.29,0.458,0.599,0.458c3.382,0,6.764,0,10.146,0c0.342,0,1.337-0.177,1.337-0.686c0-24.373,0-48.745,0-73.118
						c-0.445,0.229-0.892,0.457-1.337,0.686c12.882,0,25.765,0,38.646,0c0.594,0,1.188,0,1.782,0c-0.633,0-0.471-0.524-0.471,0.943
						c0,3.597,0,7.193,0,10.79c0,6.38,0,12.759,0,19.139c0,0.333,0.29,0.458,0.599,0.458c17.104,0,34.209,0,51.314,0
						c-0.342,0-0.376-0.681-0.376,0.783c0,1.558,0,3.116,0,4.673c0,5.546,0,11.092,0,16.637c0,8.505,0,17.009,0,25.514
						c0,0.333,0.29,0.458,0.599,0.458c7.888,0,15.776,0,23.664,0c0.342,0,1.337-0.177,1.337-0.686c0-34.476,0-68.951,0-103.427
						C748.462,43.262,746.526,43.665,746.526,44.333z"/>
				</g>
			</g>
			<g id="rect4139_2_">
				<rect x="573.426" y="106.901" fill="#FFFFFF" width="5.173" height="21.936"/>
				<g>
					<path fill="#E2001A" d="M573.049,107.444c1.005,0,2.011,0,3.016,0c0.66,0,1.32,0,1.979,0c-0.501,0-0.411-0.482-0.411,0.104
						c0,2.389,0,4.778,0,7.167c0,4.793,0,9.586,0,14.38c0.447-0.267,0.896-0.535,1.343-0.802c-1.005,0-2.011,0-3.016,0
						c-0.66,0-1.32,0-1.979,0c0.5,0,0.411,0.482,0.411-0.104c0-2.389,0-4.778,0-7.167c0-4.793,0-9.586,0-14.38
						c0-0.593-1.932-0.229-1.932,0.518c0,7.312,0,14.624,0,21.936c0,0.23,0.446,0.284,0.589,0.284c1.725,0,3.448,0,5.173,0
						c0.467,0,1.343-0.208,1.343-0.802c0-7.312,0-14.624,0-21.936c0-0.23-0.445-0.284-0.589-0.284c-1.725,0-3.448,0-5.173,0
						C573.087,106.358,571.743,107.444,573.049,107.444z"/>
				</g>
			</g>
			<g id="rect4141_2_">
				<rect x="581" y="106.901" fill="#FFFFFF" width="5.174" height="21.936"/>
				<g>
					<path fill="#E2001A" d="M580.633,107.48c1.005,0,2.011,0,3.016,0c0.66,0,1.32,0,1.98,0c-0.497,0-0.424-0.782-0.424-0.079
						c0,2.389,0,4.778,0,7.167c0,4.793,0,9.587,0,14.38c0.445-0.23,0.891-0.46,1.336-0.69c-1.005,0-2.011,0-3.016,0
						c-0.66,0-1.32,0-1.98,0c0.497,0,0.424,0.782,0.424,0.079c0-2.389,0-4.778,0-7.167c0-4.793,0-9.587,0-14.38
						c0-0.854-1.938-0.456-1.938,0.223c0,7.312,0,14.624,0,21.936c0,0.334,0.29,0.468,0.602,0.468c1.725,0,3.449,0,5.174,0
						c0.347,0,1.336-0.176,1.336-0.69c0-7.312,0-14.624,0-21.936c0-0.334-0.29-0.468-0.602-0.468c-1.725,0-3.449,0-5.174,0
						C580.604,106.322,579.325,107.48,580.633,107.48z"/>
				</g>
			</g>
			<g id="rect4143_2_">
				<rect x="589.586" y="106.901" fill="#FFFFFF" width="5.174" height="21.936"/>
				<g>
					<path fill="#E2001A" d="M589.178,107.326c1.005,0,2.011,0,3.016,0c0.66,0,1.32,0,1.98,0c-0.478,0-0.38-0.266-0.38,0.223
						c0,2.389,0,4.778,0,7.167c0,4.793,0,9.586,0,14.38c0.458-0.228,0.916-0.456,1.374-0.684c-1.005,0-2.011,0-3.016,0
						c-0.66,0-1.32,0-1.98,0c0.478,0,0.38,0.266,0.38-0.223c0-2.389,0-4.778,0-7.167c0-4.793,0-9.586,0-14.38
						c0-0.382-1.932-0.083-1.932,0.518c0,7.312,0,14.624,0,21.936c0,0.194,0.466,0.166,0.558,0.166c1.725,0,3.449,0,5.174,0
						c0.341,0,1.374-0.208,1.374-0.684c0-7.312,0-14.624,0-21.936c0-0.194-0.466-0.166-0.558-0.166c-1.725,0-3.449,0-5.174,0
						C589.433,106.476,587.889,107.326,589.178,107.326z"/>
				</g>
			</g>
			<g id="rect4153_2_">
				<rect x="675.67" y="115.258" fill="#FFFFFF" width="5.174" height="21.936"/>
				<g>
					<path fill="#E2001A" d="M675.288,115.783c1.006,0,2.011,0,3.017,0c0.66,0,1.319,0,1.979,0c-0.497,0-0.406-0.45-0.406,0.123
						c0,2.389,0,4.778,0,7.167c0,4.793,0,9.586,0,14.38c0.449-0.261,0.898-0.522,1.348-0.784c-1.006,0-2.011,0-3.017,0
						c-0.66,0-1.319,0-1.979,0c0.497,0,0.406,0.45,0.406-0.123c0-2.389,0-4.778,0-7.167c0-4.793,0-9.586,0-14.38
						c0-0.562-1.932-0.207-1.932,0.518c0,7.312,0,14.624,0,21.936c0,0.226,0.448,0.266,0.584,0.266c1.725,0,3.449,0,5.174,0
						c0.448,0,1.348-0.207,1.348-0.784c0-7.312,0-14.624,0-21.936c0-0.226-0.448-0.266-0.584-0.266c-1.725,0-3.449,0-5.174,0
						C675.36,114.733,673.983,115.783,675.288,115.783z"/>
				</g>
			</g>
			<g id="rect4155_2_">
				<rect x="683.245" y="115.258" fill="#FFFFFF" width="5.171" height="21.936"/>
				<g>
					<path fill="#E2001A" d="M682.859,115.769c1.005,0,2.01,0,3.015,0c0.659,0,1.319,0,1.979,0c-0.495,0-0.403-0.425-0.403,0.137
						c0,2.389,0,4.778,0,7.167c0,4.793,0,9.586,0,14.38c0.45-0.256,0.901-0.513,1.352-0.77c-1.005,0-2.01,0-3.015,0
						c-0.66,0-1.319,0-1.979,0c0.494,0,0.402,0.425,0.402-0.137c0-2.389,0-4.778,0-7.167c0-4.793,0-9.586,0-14.38
						c0-0.537-1.932-0.189-1.932,0.518c0,7.312,0,14.624,0,21.936c0,0.222,0.45,0.252,0.58,0.252c1.724,0,3.447,0,5.171,0
						c0.433,0,1.352-0.206,1.352-0.77c0-7.312,0-14.624,0-21.936c0-0.222-0.45-0.252-0.58-0.252c-1.724,0-3.447,0-5.171,0
						C682.958,114.747,681.557,115.769,682.859,115.769z"/>
				</g>
			</g>
			<g id="rect4157_2_">
				<rect x="691.83" y="115.258" fill="#FFFFFF" width="5.174" height="21.936"/>
				<g>
					<path fill="#E2001A" d="M691.443,115.763c1.005,0,2.011,0,3.016,0c0.66,0,1.32,0,1.98,0c-0.493,0-0.401-0.415-0.401,0.142
						c0,2.389,0,4.778,0,7.167c0,4.793,0,9.586,0,14.38c0.451-0.255,0.902-0.509,1.353-0.764c-1.005,0-2.011,0-3.016,0
						c-0.66,0-1.32,0-1.98,0c0.493,0,0.401,0.415,0.401-0.142c0-2.389,0-4.778,0-7.167c0-4.793,0-9.586,0-14.38
						c0-0.527-1.932-0.183-1.932,0.518c0,7.312,0,14.624,0,21.936c0,0.221,0.451,0.247,0.579,0.247c1.725,0,3.449,0,5.174,0
						c0.426,0,1.353-0.206,1.353-0.764c0-7.312,0-14.624,0-21.936c0-0.221-0.451-0.247-0.579-0.247c-1.725,0-3.449,0-5.174,0
						C691.552,114.752,690.141,115.763,691.443,115.763z"/>
				</g>
			</g>
			<g id="rect4159_2_">
				<rect x="757.637" y="56.761" fill="#FFFFFF" width="5.168" height="21.937"/>
				<g>
					<path fill="#E2001A" d="M757.289,57.415c1.005,0,2.009,0,3.014,0c0.659,0,1.318,0,1.978,0c-0.519,0-0.45-0.931-0.45-0.177
						c0,2.389,0,4.778,0,7.167c0,4.794,0,9.587,0,14.381c0.44-0.248,0.881-0.495,1.322-0.742c-1.005,0-2.009,0-3.014,0
						c-0.659,0-1.318,0-1.978,0c0.519,0,0.45,0.931,0.45,0.177c0-2.389,0-4.778,0-7.167c0-4.794,0-9.587,0-14.381
						c0-0.956-1.949-0.617-1.949,0.177c0,7.312,0,14.625,0,21.937c0,0.344,0.285,0.565,0.627,0.565c1.723,0,3.445,0,5.168,0
						c0.4,0,1.322-0.17,1.322-0.742c0-7.312,0-14.625,0-21.937c0-0.344-0.285-0.565-0.627-0.565c-1.723,0-3.445,0-5.168,0
						C757.123,56.107,755.983,57.415,757.289,57.415z"/>
				</g>
			</g>
			<g id="rect4161_2_">
				<rect x="765.207" y="56.761" fill="#FFFFFF" width="5.178" height="21.937"/>
				<g>
					<path fill="#E2001A" d="M764.831,57.307c1.006,0,2.013,0,3.019,0c0.66,0,1.321,0,1.981,0c-0.501,0-0.412-0.488-0.412,0.101
						c0,2.389,0,4.778,0,7.167c0,4.794,0,9.587,0,14.381c0.447-0.269,0.895-0.537,1.342-0.805c-1.006,0-2.013,0-3.019,0
						c-0.66,0-1.321,0-1.981,0c0.501,0,0.412,0.488,0.412-0.101c0-2.389,0-4.778,0-7.167c0-4.794,0-9.587,0-14.381
						c0-0.598-1.932-0.232-1.932,0.518c0,7.312,0,14.625,0,21.937c0,0.231,0.445,0.288,0.59,0.288c1.726,0,3.451,0,5.178,0
						c0.47,0,1.342-0.209,1.342-0.805c0-7.312,0-14.625,0-21.937c0-0.231-0.445-0.288-0.59-0.288c-1.726,0-3.451,0-5.178,0
						C764.863,56.214,763.525,57.307,764.831,57.307z"/>
				</g>
			</g>
			<g id="rect4165_2_">
				<rect x="758.484" y="89.144" fill="#FFFFFF" width="5.168" height="21.934"/>
				<g>
					<path fill="#E2001A" d="M758.397,89.849c1.723,0,3.445,0,5.168,0c-0.297-0.21-0.594-0.42-0.892-0.63c0,7.312,0,14.623,0,21.934
						c0.355-0.259,0.71-0.519,1.065-0.779c-1.723,0-3.445,0-5.168,0c0.297,0.21,0.594,0.42,0.892,0.63c0-7.312,0-14.623,0-21.934
						c0-1.013-1.957-0.716-1.957,0.148c0,7.312,0,14.623,0,21.934c0,0.506,0.467,0.63,0.892,0.63c1.723,0,3.445,0,5.168,0
						c0.377,0,1.065-0.322,1.065-0.779c0-7.312,0-14.623,0-21.934c0-0.506-0.467-0.63-0.892-0.63c-1.723,0-3.445,0-5.168,0
						C757.469,88.439,757.087,89.849,758.397,89.849z"/>
				</g>
			</g>
			<g id="rect4167_2_">
				<rect x="766.053" y="89.144" fill="#FFFFFF" width="5.174" height="21.934"/>
				<g>
					<path fill="#E2001A" d="M765.652,89.601c1.006,0,2.011,0,3.017,0c0.66,0,1.32,0,1.979,0c-0.483,0-0.388-0.326-0.388,0.191
						c0,2.389,0,4.777,0,7.166c0,4.793,0,9.586,0,14.379c0.455-0.238,0.911-0.477,1.366-0.715c-1.006,0-2.011,0-3.017,0
						c-0.66,0-1.32,0-1.979,0c0.483,0,0.388,0.326,0.388-0.191c0-2.389,0-4.777,0-7.166c0-4.793,0-9.586,0-14.379
						c0-0.44-1.932-0.123-1.932,0.518c0,7.311,0,14.623,0,21.934c0,0.206,0.46,0.198,0.565,0.198c1.725,0,3.449,0,5.174,0
						c0.375,0,1.366-0.205,1.366-0.715c0-7.311,0-14.623,0-21.934c0-0.206-0.46-0.198-0.565-0.198c-1.725,0-3.449,0-5.174,0
						C765.851,88.688,764.357,89.601,765.652,89.601z"/>
				</g>
			</g>
			<g id="rect4169_2_">
				<rect x="642.716" y="104.811" fill="#FFFFFF" width="5.171" height="21.937"/>
				<g>
					<path fill="#E2001A" d="M642.094,105.221c1.005,0,2.01,0,3.015,0c1.041,0,1.813-0.345,1.813,0.238c0,2.389,0,4.778,0,7.167
						c0,4.793,0,9.587,0,14.381c0.529-0.223,1.059-0.446,1.588-0.668c-1.005,0-2.01,0-3.015,0c-1.041,0-1.813,0.345-1.813-0.238
						c0-2.389,0-4.778,0-7.167c0-4.793,0-9.587,0-14.381c0-0.35-1.932-0.061-1.932,0.518c0,7.313,0,14.625,0,21.937
						c0,0.123,0.28,0.151,0.344,0.151c1.724,0,3.447,0,5.171,0c0.359,0,1.588-0.132,1.588-0.668c0-7.313,0-14.625,0-21.937
						c0-0.123-0.28-0.151-0.344-0.151c-1.724,0-3.447,0-5.171,0C642.915,104.401,641.131,105.221,642.094,105.221z"/>
				</g>
			</g>
			<g id="rect4171_2_">
				<rect x="650.291" y="104.811" fill="#FFFFFF" width="5.17" height="21.937"/>
				<g>
					<path fill="#E2001A" d="M649.911,105.344c1.005,0,2.01,0,3.015,0c0.659,0,1.318,0,1.979,0c-0.499,0-0.409-0.465-0.409,0.114
						c0,2.389,0,4.778,0,7.167c0,4.793,0,9.587,0,14.381c0.448-0.264,0.896-0.528,1.346-0.792c-1.005,0-2.01,0-3.015,0
						c-0.659,0-1.318,0-1.979,0c0.499,0,0.409,0.465,0.409-0.114c0-2.389,0-4.778,0-7.167c0-4.793,0-9.587,0-14.381
						c0-0.576-1.932-0.217-1.932,0.518c0,7.313,0,14.625,0,21.937c0,0.228,0.447,0.274,0.586,0.274c1.724,0,3.447,0,5.17,0
						c0.457,0,1.346-0.208,1.346-0.792c0-7.313,0-14.625,0-21.937c0-0.228-0.447-0.274-0.586-0.274c-1.724,0-3.447,0-5.17,0
						C649.968,104.278,648.606,105.344,649.911,105.344z"/>
				</g>
			</g>
			<g id="rect4173_2_">
				<rect x="676.515" y="145.55" fill="#FFFFFF" width="5.173" height="21.937"/>
				<g>
					<path fill="#E2001A" d="M676.159,146.173c1.005,0,2.011,0,3.016,0c0.66,0,1.319,0,1.979,0c-0.51,0-0.438-0.87-0.438-0.136
						c0,2.389,0,4.777,0,7.167c0,4.794,0,9.588,0,14.381c0.442-0.24,0.885-0.48,1.327-0.721c-1.005,0-2.011,0-3.016,0
						c-0.66,0-1.319,0-1.979,0c0.51,0,0.438,0.87,0.438,0.137c0-2.39,0-4.778,0-7.168c0-4.793,0-9.587,0-14.381
						c0-0.915-1.943-0.549-1.943,0.196c0,7.313,0,14.625,0,21.937c0,0.341,0.286,0.525,0.616,0.525c1.724,0,3.448,0,5.173,0
						c0.378,0,1.327-0.172,1.327-0.721c0-7.313,0-14.625,0-21.938c0-0.34-0.286-0.524-0.616-0.524c-1.725,0-3.448,0-5.173,0
						C676.05,144.928,674.852,146.173,676.159,146.173z"/>
				</g>
			</g>
			<g id="rect4175_2_">
				<rect x="684.089" y="145.55" fill="#FFFFFF" width="5.175" height="21.937"/>
				<g>
					<path fill="#E2001A" d="M683.687,145.999c1.006,0,2.011,0,3.017,0c0.66,0,1.32,0,1.98,0c-0.481,0-0.386-0.311-0.386,0.199
						c0,2.389,0,4.779,0,7.167c0,4.794,0,9.587,0,14.381c0.456-0.235,0.912-0.472,1.368-0.707c-1.006,0-2.012,0-3.017,0
						c-0.66,0-1.32,0-1.98,0c0.481,0,0.386,0.311,0.386-0.199c0-2.389,0-4.778,0-7.167c0-4.794,0-9.588,0-14.381
						c0-0.426-1.932-0.113-1.932,0.518c0,7.312,0,14.625,0,21.937c0,0.203,0.461,0.189,0.563,0.189c1.725,0,3.45,0,5.175,0
						c0.366,0,1.368-0.205,1.368-0.707c0-7.313,0-14.625,0-21.937c0-0.203-0.461-0.19-0.563-0.19c-1.725,0-3.45,0-5.175,0
						C683.899,145.102,682.393,145.999,683.687,145.999z"/>
				</g>
			</g>
			<g id="rect4177_2_">
				<rect x="644.405" y="141.37" fill="#FFFFFF" width="5.173" height="21.94"/>
				<g>
					<path fill="#E2001A" d="M644.328,142.11c1.725,0,3.449,0,5.173,0c-0.301-0.225-0.603-0.45-0.903-0.675
						c0,7.313,0,14.627,0,21.94c0.353-0.268,0.705-0.536,1.058-0.805c-1.725,0-3.448,0-5.173,0c0.301,0.226,0.603,0.45,0.904,0.676
						c0-7.313,0-14.627,0-21.94c0-1.05-1.963-0.786-1.963,0.129c0,7.313,0,14.627,0,21.94c0,0.514,0.463,0.676,0.904,0.676
						c1.725,0,3.449,0,5.173,0c0.397,0,1.058-0.335,1.058-0.805c0-7.313,0-14.627,0-21.94c0-0.513-0.462-0.675-0.903-0.675
						c-1.725,0-3.448,0-5.173,0C643.354,140.63,643.021,142.11,644.328,142.11z"/>
				</g>
			</g>
			<g id="rect4181_2_">
				<rect x="573.396" y="141.37" fill="#FFFFFF" width="5.173" height="21.94"/>
				<g>
					<path fill="#E2001A" d="M573.007,141.871c1.006,0,2.011,0,3.016,0c0.66,0,1.32,0,1.98,0c-0.493,0-0.4-0.406-0.4,0.147
						c0,2.39,0,4.779,0,7.168c0,4.794,0,9.589,0,14.383c0.451-0.253,0.903-0.506,1.354-0.759c-1.006,0-2.011,0-3.016,0
						c-0.66,0-1.32,0-1.98,0c0.493,0,0.4,0.406,0.4-0.147c0-2.39,0-4.779,0-7.169c0-4.794,0-9.588,0-14.383
						c0-0.518-1.932-0.177-1.932,0.518c0,7.313,0,14.627,0,21.94c0,0.22,0.452,0.241,0.577,0.241c1.725,0,3.449,0,5.173,0
						c0.422,0,1.354-0.205,1.354-0.759c0-7.313,0-14.627,0-21.94c0-0.219-0.452-0.242-0.577-0.242c-1.725,0-3.449,0-5.173,0
						C573.125,140.87,571.705,141.871,573.007,141.871z"/>
				</g>
			</g>
			<g id="rect4183_2_">
				<rect x="581.981" y="141.37" fill="#FFFFFF" width="5.171" height="21.94"/>
				<g>
					<path fill="#E2001A" d="M581.905,142.113c1.724,0,3.447,0,5.171,0c-0.302-0.227-0.604-0.453-0.905-0.68
						c0,7.313,0,14.627,0,21.94c0.353-0.269,0.705-0.538,1.058-0.807c-1.724,0-3.447,0-5.171,0c0.302,0.227,0.604,0.453,0.905,0.68
						c0-7.313,0-14.627,0-21.94c0-1.054-1.963-0.792-1.963,0.127c0,7.313,0,14.627,0,21.94c0,0.514,0.462,0.68,0.905,0.68
						c1.724,0,3.447,0,5.171,0c0.399,0,1.058-0.335,1.058-0.807c0-7.313,0-14.627,0-21.94c0-0.514-0.462-0.68-0.905-0.68
						c-1.724,0-3.447,0-5.171,0C580.928,140.627,580.598,142.113,581.905,142.113z"/>
				</g>
			</g>
			<g id="rect4185_2_">
				<rect x="757.605" y="122.568" fill="#FFFFFF" width="5.174" height="21.937"/>
				<g>
					<path fill="#E2001A" d="M757.259,123.225c1.006,0,2.011,0,3.017,0c0.66,0,1.32,0,1.98,0c-0.52,0-0.451-0.938-0.451-0.181
						c0,2.389,0,4.778,0,7.167c0,4.793,0,9.587,0,14.381c0.44-0.248,0.881-0.496,1.321-0.745c-1.006,0-2.011,0-3.017,0
						c-0.66,0-1.32,0-1.98,0c0.52,0,0.451,0.938,0.451,0.181c0-2.389,0-4.778,0-7.167c0-4.793,0-9.587,0-14.381
						c0-0.959-1.949-0.623-1.949,0.175c0,7.313,0,14.625,0,21.937c0,0.344,0.284,0.57,0.628,0.57c1.725,0,3.449,0,5.174,0
						c0.402,0,1.321-0.17,1.321-0.745c0-7.313,0-14.625,0-21.937c0-0.344-0.284-0.57-0.628-0.57c-1.725,0-3.449,0-5.174,0
						C757.087,121.911,755.953,123.225,757.259,123.225z"/>
				</g>
			</g>
			<g id="rect4111_2_">
				<rect x="504.266" y="3.118" opacity="0" fill="#0E242F" width="351.338" height="296.882"/>
				<g>
					<path fill="#E2001A" d="M503.906,3.727c37.681,0,75.36,0,113.041,0c62.121,0,124.243,0,186.364,0c16.357,0,32.716,0,49.073,0
						c0.942,0,1.884,0,2.825,0c-0.634,0-0.577-0.908-0.577-0.065c0,0.615,0,1.23,0,1.846c0,6.323,0,12.646,0,18.97
						c0,58.757,0,117.514,0,176.272c0,33.117,0,66.235,0,99.354c0.443-0.237,0.887-0.475,1.33-0.712c-37.681,0-75.36,0-113.041,0
						c-62.121,0-124.243,0-186.364,0c-16.357,0-32.716,0-49.073,0c-0.942,0-1.884,0-2.825,0c0.634,0,0.577,0.908,0.577,0.066
						c0-0.615,0-1.231,0-1.847c0-6.323,0-12.646,0-18.97c0-58.757,0-117.515,0-176.271c0-33.118,0-66.236,0-99.354
						c0-0.896-1.941-0.52-1.941,0.204c0,41.853,0,83.705,0,125.558c0,54.167,0,108.335,0,162.502c0,2.941,0,5.882,0,8.823
						c0,0.338,0.287,0.507,0.611,0.507c37.681,0,75.36,0,113.041,0c62.121,0,124.243,0,186.364,0c17.311,0,34.622,0,51.933,0
						c0.368,0,1.33-0.174,1.33-0.712c0-41.853,0-83.705,0-125.558c0-54.167,0-108.334,0-162.501c0-2.941,0-5.882,0-8.823
						c0-0.338-0.287-0.507-0.611-0.507c-37.681,0-75.36,0-113.041,0c-62.121,0-124.243,0-186.364,0c-17.311,0-34.622,0-51.933,0
						C503.822,2.509,502.599,3.727,503.906,3.727z"/>
				</g>
			</g>
		</g>
	</g>
	<g>
		<g>
			<path d="M166.211-33.627c1.09,0,1.494-1.377,0.182-1.377C165.302-35.004,164.898-33.627,166.211-33.627L166.211-33.627z"/>
		</g>
	</g>
	<g>
		<g>
			<path d="M208.454,12.35c6.788-1.062,5.18,6.542,2.918,9.925c0.632,0.004,1.263,0.008,1.895,0.012
				c0.667-2.768,1.586-4.97,3.152-7.31c0.586-0.876-1.187-0.744-1.552-0.507c-0.89,0.576-0.854,0.601-1.635,1.498
				c0.189-0.218,0.775-0.116-0.054-0.967c-0.502-0.515-1.714-0.243-1.863,0.5c-0.178,0.891-0.356,1.782-0.535,2.674
				c0.651-0.055,1.301-0.11,1.952-0.165c0.251-2.918,1.503-4.606,4.256-5.796c-0.407-0.267-0.814-0.533-1.222-0.8
				c-1.766,2.41-3.993,3.677-6.805,4.602c-1.812,0.596-8.612,1.219-3.084-1.544c3.158-1.579,7.704-1.068,11.132-1.051
				c-0.025-0.435-0.05-0.87-0.074-1.305c-4.484,1.459-8.977,1.55-13.641,1.558c0.108,0.405,0.217,0.809,0.325,1.214
				c3.299-1.463,6.602-1.925,10.182-2.002c0.063-0.45,0.125-0.9,0.188-1.351c-3.023,0.429-6.067,0.64-9.091,1.069
				c-1.027,0.146-1.527,1.486-0.188,1.351c5.17-0.522,10.337-1.082,15.508-1.604c0.58-0.059,1.697-0.971,0.658-1.304
				c-1.687-0.54-3.151-0.979-4.627-2.052c-0.463-0.336-1.995,0.031-1.715,0.8c0.54,1.486-2.229,1.28-3.732,1.877
				c-0.862,0.342-0.581,1.332,0.325,1.213c0.994-0.129,1.963-0.343,2.937-0.581c-0.323-0.297-0.647-0.594-0.971-0.891
				c-2.601,3.501-5.526,1.555-0.917-0.805c0.849-0.435,0.587-1.229-0.325-1.214c-1.453,0.024-2.633,0.154-4.006,0.582
				c0.267,0.348,0.534,0.695,0.802,1.042c1.477-1.095,2.367-1.908,4.348-2.457c-0.362-0.241-0.725-0.482-1.087-0.724
				c-0.172,0.367-0.796,0.495-1.105,0.625c-0.683,0.29-0.742,1.114,0.078,1.212c3.5,0.417,1.18-1.322,1.515,0.654
				c0.047,0.277,0.394,0.384,0.624,0.415c0.81,0.11,1.594,0.087,2.146-0.612c-0.563,0.052-1.126,0.104-1.689,0.155
				c0.175,0.548,0.349,1.097,0.522,1.646c0.617-0.225,1.235-0.45,1.853-0.676c-0.891-0.891-1.783-1.783-2.674-2.674
				c-0.239,0.349-0.479,0.697-0.718,1.046c0.943-0.343,1.763-0.739,2.604-1.286c-0.533-0.051-1.066-0.103-1.599-0.154
				c0.958,1.936,1.661,3.772,2.139,5.882c0.617-0.225,1.235-0.45,1.853-0.676c-0.33-0.66-0.66-1.321-0.99-1.981
				c-0.269-0.86-2.052-0.352-1.932,0.518c0.535,3.868,0.923,7.686,0.524,11.588c0.647-0.114,1.294-0.228,1.942-0.341
				c-1.574-3.766-2.962-7.467-3.198-11.588c-0.621,0.167-1.242,0.333-1.863,0.5c1.617,3.134,1.975,6.343,2.049,9.826
				c0.647-0.114,1.294-0.228,1.942-0.341c-0.126-1.44-0.373-2.843-0.535-4.278c-0.093-0.828-1.868-0.368-1.942,0.341
				c-0.352,3.37,0.003,6.461,0.545,9.802c0.139,0.856,2.059,0.367,1.932-0.518c-0.546-3.789-1.164-7.525-2.139-11.23
				c-0.227-0.863-2.069-0.352-1.932,0.518c0.608,3.863,1.448,7.667,1.594,11.589c0.621-0.167,1.242-0.333,1.863-0.5
				c-1.987-3.701-3.166-7.557-4.199-11.607c-0.201-0.788-1.944-0.408-1.942,0.341c0.01,3.359,0.165,6.545,1.08,9.802
				c0.242,0.861,2.071,0.352,1.932-0.518c-0.454-2.843-0.615-5.713-1.069-8.556c-0.617,0.225-1.235,0.45-1.853,0.676
				c2.642,3.712,3.052,8.063,3.119,12.5c0.651-0.055,1.301-0.11,1.952-0.165c-0.092-2.281-0.511-4.381-1.08-6.593
				c-0.208-0.807-1.884-0.394-1.942,0.341c-0.438,5.534-0.152,11.084-1.069,16.578c0.647-0.114,1.294-0.228,1.942-0.341
				c-1.057-4.582-1.568-9.243-2.139-13.904c-0.644,0.172-1.288,0.345-1.932,0.518c0.431,0.652,0.609,1.365,0.535,2.139
				c0.052,0.833,1.988,0.382,1.932-0.518c0.075-0.774-0.104-1.487-0.535-2.139c-0.358-0.818-2.041-0.375-1.932,0.518
				c0.571,4.661,1.082,9.322,2.139,13.904c0.195,0.845,1.826,0.354,1.942-0.341c0.917-5.493,0.632-11.043,1.069-16.578
				c-0.647,0.114-1.294,0.228-1.942,0.341c0.542,2.108,0.971,4.038,1.06,6.241c0.039,0.979,1.965,0.659,1.952-0.165
				c-0.07-4.665-0.525-9.272-3.298-13.168c-0.45-0.632-1.981-0.131-1.853,0.676c0.454,2.843,0.615,5.714,1.069,8.556
				c0.644-0.172,1.288-0.345,1.932-0.518c-0.882-3.143-1.049-6.184-1.059-9.45c-0.647,0.114-1.294,0.228-1.942,0.341
				c1.062,4.164,2.32,8.129,4.357,11.923c0.319,0.594,1.888,0.178,1.863-0.5c-0.15-4.038-0.987-7.959-1.614-11.941
				c-0.644,0.172-1.288,0.345-1.932,0.518c0.975,3.705,1.592,7.441,2.139,11.23c0.644-0.172,1.288-0.345,1.932-0.518
				c-0.514-3.17-0.86-6.231-0.524-9.449c-0.647,0.114-1.294,0.228-1.942,0.341c0.162,1.435,0.409,2.838,0.535,4.278
				c0.069,0.792,1.958,0.405,1.942-0.341c-0.079-3.701-0.513-7.171-2.228-10.495c-0.308-0.596-1.901-0.175-1.863,0.5
				c0.242,4.233,1.592,8.049,3.219,11.941c0.313,0.748,1.862,0.443,1.942-0.341c0.412-4.034,0.009-7.938-0.545-11.941
				c-0.644,0.172-1.288,0.345-1.932,0.518c0.431,1.379,0.284,1.039,1.148,2.297c0.426,0.62,2.035,0.13,1.853-0.676
				c-0.479-2.11-1.182-3.947-2.139-5.882c-0.301-0.61-1.12-0.465-1.599-0.154c-0.558,0.284-1.116,0.568-1.674,0.853
				c-0.307,0.111-1.17,0.595-0.718,1.046c0.892,0.891,1.783,1.782,2.674,2.674c0.468,0.468,2.128,0.195,1.853-0.676
				c-0.134-0.424-0.322-1.524-0.681-1.963c-0.387-0.473-1.346-0.279-1.689,0.155c-0.185,0.234,0.754,0.175,0.933-0.037
				c0.393-0.466,0.038-0.843-0.46-0.936c-0.808-0.15-1.658-0.212-2.47-0.309c0.026,0.404,0.052,0.808,0.078,1.212
				c1.244-0.527,1.54-0.309,2.104-1.513c0.319-0.681-0.63-0.85-1.087-0.724c-2.154,0.597-3.495,1.569-5.278,2.891
				c-0.826,0.612,0.062,1.272,0.802,1.042c1.136-0.381,2.296-0.544,3.48-0.489c-0.108-0.405-0.217-0.809-0.325-1.214
				c-2.099,1.075-2.613,2.195-4.126,4.02c-0.346,0.417-0.083,0.924,0.46,0.936c3.077,0.067,5.081,0.068,7.026-2.551
				c0.535-0.72-0.364-1.039-0.971-0.891c-0.799,0.195-1.593,0.382-2.411,0.489c0.108,0.404,0.217,0.809,0.325,1.213
				c1.576-0.625,3.236-0.979,4.813-1.604c0.333-0.132,0.759-0.59,0.467-0.955c-0.152-0.304-0.304-0.608-0.456-0.912
				c-0.571,0.267-1.143,0.533-1.715,0.8c1.536,1.116,3.192,1.648,4.998,2.226c0.22-0.435,0.439-0.869,0.658-1.304
				c-5.17,0.522-10.337,1.082-15.508,1.604c-0.063,0.45-0.125,0.9-0.188,1.351c3.023-0.429,6.067-0.64,9.091-1.069
				c1.03-0.146,1.538-1.38,0.188-1.351c-3.948,0.084-7.584,0.669-11.209,2.276c-0.903,0.401-0.543,1.215,0.325,1.214
				c4.842-0.009,9.533-0.144,14.167-1.651c0.956-0.311,1.064-1.299-0.074-1.305c-4.543-0.022-14.8-0.931-15.509,5.571
				c-0.054,0.492,0.514,0.603,0.882,0.593c5.534-0.152,11.382-1.631,14.8-6.296c0.628-0.857-0.631-1.055-1.222-0.8
				c-3.162,1.367-5.069,3.543-5.37,7.038c-0.085,0.988,1.794,0.626,1.952-0.165c0.178-0.891,0.356-1.782,0.535-2.674
				c-0.621,0.167-1.242,0.333-1.863,0.5c0.289,0.444,0.513,0.918,0.673,1.421c0.099,0.264,0.351,0.393,0.624,0.415
				c1.73,0.137,2.071-1.495,3.432-2.375c-0.518-0.169-1.035-0.338-1.552-0.507c-1.61,2.407-2.593,4.867-3.266,7.664
				c-0.239,0.992,1.591,0.467,1.895,0.012c3.29-4.923,2.906-12.634-4.568-11.465C207.61,11.16,207.139,12.555,208.454,12.35
				L208.454,12.35z"/>
		</g>
	</g>
	<g>
		<g>
			<path d="M213.609,20.352c-5.851-3.031-2.537-9.439,1.575-12.338c0.744-0.524-0.562-0.532-0.855-0.459
				c-2.647,0.662-0.99,0.713,0.451-0.728c0.094-0.094,0.118-0.218,0.02-0.316c-0.356-0.356-0.713-0.713-1.069-1.069
				c-0.435,0.269-0.87,0.537-1.305,0.805c1.224,0,1.936-0.959,0.333-0.843c-0.744,0.054-1.47,0.321-2.172,0.547
				c-0.082,0.026-1.232,0.491-0.804,0.726c9.068,4.964,5.709,22.643,2.621,30.281c0.641-0.136,1.283-0.272,1.924-0.408
				c-0.583-1.798-0.955-3.457-1.07-5.348c-0.644,0.172-1.288,0.345-1.932,0.518c0.447,1.23,0.724,2.48,1.07,3.743
				c0.155,0.567,1.776,0.004,1.924-0.408c0.38-1.06,0.148-2.132,0.535-3.209c-0.641,0.136-1.283,0.272-1.924,0.409
				c0.015,1.134,0.043,2.171,0.535,3.208c0.249,0.525,2.103-0.012,1.932-0.518c-0.49-1.453-0.992-2.873-1.604-4.278
				c-0.224-0.516-1.813-0.065-1.924,0.409c-0.397,1.689-0.522,3.203-0.543,4.921c-0.005,0.445,1.867,0.096,1.924-0.409
				c0.288-2.522,1.183-4.188,2.601-6.301c-0.617,0.098-1.234,0.195-1.851,0.292c2.569,5.888-2.111,9.988-7.095,12.382
				c-0.982,0.472,0.168,0.689,0.675,0.57c2.697-0.633,5.324-1.506,8.021-2.139c0.368-0.086,1.362-0.65,0.511-0.825
				c-0.366-0.054-0.732-0.108-1.099-0.162c0.174-0.101,0.399-0.223,0.392-0.453c-0.003-0.089-0.006-0.177-0.009-0.266
				c-0.034-0.082-0.095-0.133-0.183-0.154c-1.428-0.312-2.211,0.731-3.558,1.107c-0.543,0.151-1.364,0.831-0.3,0.831
				c1.069,0,2.139,0,3.208,0c1.084,0.345,1.941,0.073,2.573-0.818c-1.477,0.094-3.003,0.672-4.412,1.057
				c-0.546,0.149-1.362,0.831-0.3,0.831c1.604,0,3.208,0,4.813,0c0.601,0,2.096-0.91,0.801-0.91
				c-0.724,0.059-1.44,0.006-2.147-0.159c-0.583,0.224-1.166,0.448-1.749,0.672c4.759,1.039-5.257,0.893-6.416,0.599
				c-0.395,0.29-0.789,0.579-1.184,0.868c1.522-0.133,3.001-0.388,4.519-0.559c0.563-0.063,1.767-0.886,0.56-0.886
				c-1.342,0-2.347,0.826-0.111-0.149c1.337-0.583,2.531-1.649,3.673-2.521c0.717-0.548-0.544-0.537-0.855-0.459
				c-1.309,0.486-1.417,0.375-0.324-0.333c1.158-0.796,2.068-0.622,2.729,0.524c0.435-0.269,0.87-0.537,1.305-0.805
				c-3.42,0.211-5.438,1.438-8.106,3.581c0.571-0.022,1.142-0.044,1.712-0.067c2.19-4.539,5.068-2.396,0.292-0.678
				c-1.079,0.388-0.374,0.927,0.455,0.669c0.38-0.118,0.45,0.304,0.599,0.508c0.314,0.43,2.176-0.196,1.81-0.699
				c0.021,0.028,0.021-0.74,0.022-0.718c-0.006-0.143-0.268-0.173-0.354-0.19c-1.436-0.275-0.805,0.691-0.323,0.456
				c1.524-0.744,1.818-1.559,2.774-2.976c0.236-0.35-0.201-0.442-0.484-0.421c-3.249,0.238-5.258,1.347-6.706,4.348
				c-0.265,0.548,1.525,0.083,1.712-0.067c1.863-1.497,3.075-2.668,5.797-2.836c0.188-0.012,1.763-0.38,1.305-0.805
				c-3.074-2.85-4.937-1.757-7.137,1.453c-0.378,0.552,0.754,0.4,0.985,0.342c5.034-1.258-9.416,3.392-3.944,1.922
				c-0.548,0.147-1.36,0.831-0.3,0.831c1.633,0,4.33-0.825-0.803-0.375c-0.197,0.017-1.959,0.672-1.184,0.868
				c3.875,0.982,7.085,0.958,10.763-0.655c0.121-0.053,0.879-0.404,0.551-0.643c-0.553-0.401-1.092-0.807-1.765-0.953
				c-0.385-0.084-1.817,0.039-1.749,0.672c0.013,0.118,0.026,0.237,0.039,0.355c0.022,0.208,0.44,0.196,0.565,0.196
				c0.891,0,1.782,0,2.674,0c0.601,0,2.096-0.91,0.801-0.91c-1.764,0-7.655,0.313-0.266-0.159c0.562-0.036,2.121-0.91,0.801-0.91
				c-1.89,0-4.747,0.179-5.595,0.506c1.323-0.511,1.017-1.216,0.157-0.587c-0.092,0.067-0.349,0.314-0.15,0.432
				c0.231,0.138,0.36,0.236,0.61,0.288c0.38,0.078-2.568,0.618-3.01,0.75c-2.284,0.682-1.749,1.048-0.273,0.229
				c0.844-0.469,1.599-1.053,2.37-1.627c3.514-2.618,5.031-6.401,3.248-10.489c-0.229-0.523-1.621-0.05-1.851,0.292
				c-1.402,2.091-2.456,3.979-2.747,6.533c0.641-0.136,1.283-0.272,1.924-0.409c-0.109-1.608,0.067-3.176,0.527-4.704
				c-0.641,0.136-1.283,0.272-1.924,0.409c0.612,1.406,1.114,2.825,1.604,4.278c0.644-0.172,1.288-0.345,1.932-0.518
				c-0.492-1.037-0.52-2.074-0.535-3.208c-0.006-0.52-1.777,0-1.924,0.409c-0.38,1.059-0.148,2.131-0.535,3.208
				c0.641-0.136,1.283-0.272,1.924-0.408c-0.346-1.263-0.622-2.513-1.07-3.743c-0.196-0.54-1.966-0.047-1.932,0.518
				c0.115,1.891,0.487,3.55,1.07,5.348c0.186,0.574,1.759,0,1.924-0.408c3.129-7.74,6.468-25.648-2.727-30.682
				c-0.268,0.242-0.536,0.484-0.804,0.726c1.137-0.366,2.044-0.447,3.242-0.456c0.597-0.004,2.098-0.91,0.801-0.91
				c-0.535,0-1.069,0-1.604,0c-0.214,0-1.739,0.37-1.305,0.805c1.171,1.171,0.524,1.318-0.515,2.358
				c-0.491,0.491,0.835,0.38,0.985,0.342c2.623-0.656,1.005-0.89-0.375,0.31c-1.22,1.06-2.061,2.422-2.805,3.832
				c-1.821,3.452-0.392,6.525,2.832,8.195C212.503,21.416,214.29,20.704,213.609,20.352L213.609,20.352z"/>
		</g>
	</g>
	<g>
		<g>
			<path d="M219.611,23.618c-3.3-2.17-6.584-5.148-8.312-8.749c-0.385-0.803-0.47-1.626-0.307-2.503
				c3.152-2.078,3.561-2.546,1.226-1.406c-0.492,0.228-0.983,0.459-1.473,0.693c-1.62,0.764-3.455,1.796-4.687,3.123
				c-5.398,5.813,3.808,14.843,6.335,20.151c0.255,0.537,2.054,0.07,1.932-0.518c-0.115-1.149-0.472-2.218-1.07-3.208
				c-0.256-0.56-1.956-0.083-1.932,0.518c0.113,2.829,0.646,5.359,1.604,8.021c0.286-0.219,0.573-0.438,0.859-0.658
				c-2,0.429-1.942-2.051-2.136-3.068c-0.104-0.55-2.046-0.086-1.932,0.518c0.61,3.207,1.041,4.044,4.281,3.349
				c0.2-0.043,0.981-0.318,0.859-0.658c-0.958-2.662-1.491-5.193-1.604-8.021c-0.644,0.172-1.288,0.345-1.932,0.518
				c0.598,0.99,0.955,2.06,1.07,3.208c0.644-0.172,1.288-0.345,1.932-0.518c-2.074-4.357-4.972-8.204-7.165-12.483
				c-3.332-6.5,3.542-9.494,8.698-11.541c0.532-0.211,0.906-0.862,0.035-0.791c-2.819,0.231-7.037,0.743-6.918,4.414
				c0.132,4.092,5.805,8.333,8.829,10.321C218.322,24.668,220.028,23.892,219.611,23.618L219.611,23.618z"/>
		</g>
	</g>
	<g>
		<g>
			<path d="M212.929,20.882c-0.679,4.811-5.867,6.715-2.311,11.578c2.17,2.968,6.513,0.436,8.333-1.366
				c0.38-0.376,0.079-0.746-0.405-0.729c-6.059,0.209-11.732,2-17.618,3.271c-1.189,0.257-0.895,1.232,0.267,0.995
				c4.595-0.938,8.511-3.123,12.781-4.958c6.295-2.705,13.249-1.501,19.868-1.396c0.743,0.012,2.053-1.1,0.745-1.121
				c-5.434-0.086-11.303-1.116-16.657,0.224c-5.933,1.483-10.998,5.03-17.003,6.256c0.089,0.332,0.178,0.664,0.267,0.995
				c2.226-0.481,4.431-1.036,6.639-1.591c1.631-0.414,3.275-0.772,4.932-1.075c3.322-0.629-0.268,0.53-1.379-2.107
				c-1.205-2.856,3.06-6.255,3.476-9.21C214.973,19.863,213.023,20.209,212.929,20.882L212.929,20.882z"/>
		</g>
	</g>
	<g>
		<g>
			<path d="M323.467,24.523c3.238,0.007,6.415,0.099,9.626,0.534c-0.629-4.915-1.258-9.831-1.887-14.746
				c-2.029,0.626-4.093,1.039-6.188,1.375c-0.903,0.145-1.874,0.102-2.785,0.114c-2.291,0.03,0.555-0.11,0.898,1.46
				c-0.003,1.307-0.006,2.614-0.009,3.921c-0.774,4.793-3.525,0.453-3.105-2.008c-0.346,2.029-1.734,4.185-2.85,6.479
				c-3.089,6.346-4.546,12.234-1.719,18.952c1.589,3.775,7.097,4.53,10.268,2.672c3.871-2.27,4.257-6.502,2.672-10.268
				c0.32,0.76,0.147,1.041,0.404-0.168c0.275-1.298,0.807-2.499,1.366-3.688c1.447-3.079,3.085-6.052,4.146-9.3
				c2.927-8.964-4.239-14.712-12.368-15.521c-9.333-0.928-18.383,10.018-10.646,17.839c6.315,6.384,15.901,5.065,23.8,2.629
				c8.603-2.653,6.198-13.65-1.887-14.746c-3.212-0.436-6.389-0.528-9.626-0.535C313.888,9.498,313.804,24.502,323.467,24.523
				L323.467,24.523z"/>
		</g>
	</g>
	<g>
		<g>
			<path d="M495.516,19.453c3.923-0.767,7.757-0.602,11.587,0.525c0.014-4.827,0.026-9.653,0.039-14.48
				c-14.867,2.784-13.952,25.882-13.675,36.945c0.352,14.005,3.17,27.926,3.301,41.903c0.091,9.681,15.095,9.775,15.004,0.108
				c-0.114-12.175-2.415-24.387-3.082-36.552c-0.385-7.009-0.505-14.083,0.283-21.068c-0.002,0.012,0.395-2.175,0.561-2.928
				c0.153-0.691,1.358-4.074,0.79-2.815c0.172-0.362,0.358-0.715,0.562-1.06c0.912-1.63-1.029,1.079,0.141-0.217
				c1.139-1.261-1.384,0.83,0.023-0.003c-1.575,0.932-0.816,0.324-0.024,0.176c7.651-1.433,6.794-12.492,0.039-14.48
				c-6.414-1.887-12.91-1.818-19.431-0.544C482.131,6.822,486.076,21.298,495.516,19.453L495.516,19.453z"/>
		</g>
	</g>
	<g>
		<g>
			<path d="M557.997,9.159c-4.847,25.001-0.412,50.048,0.269,75.188c0.262,9.665,15.266,9.775,15.004,0.108
				c-0.641-23.647-5.358-47.834-0.802-71.335C574.301,3.665,559.838-0.336,557.997,9.159L557.997,9.159z"/>
		</g>
	</g>
	<g>
		<g>
			<path d="M167.961,267.342c5.557-4.215,13.558-2.464,20.085-2.477c3.739-0.007,7.334-0.642,10.864-1.842
				c3.26-1.108,6.796-3.267,10.273-3.508c-1.26,0.087-2.349-2.518-1.704-0.458c0.33,1.054,0.521,2.18,0.631,3.272
				c0.337,3.354,0.221,6.758,0.088,10.118c-0.257,6.469-1.193,12.911-1.27,19.386c-0.116,9.691,14.888,9.766,15.003,0.107
				c0.093-7.785,1.252-15.524,1.383-23.316c0.126-7.529-0.29-19.29-8.421-22.85c-9.143-4.002-16.564,3.533-25.408,4.052
				c-9.848,0.577-20.601-1.886-29.121,4.575c-3.254,2.469-4.925,6.424-2.672,10.268
				C159.577,267.882,164.698,269.816,167.961,267.342L167.961,267.342z"/>
		</g>
	</g>
	<g>
		<g>
			<path d="M313.843,254.509c2.645,5.2,2.325,11.609,2.075,17.268c-0.296,6.718-1.367,13.373-2.037,20.058
				c-0.967,9.643,14.048,9.636,15.003,0.107c1.489-14.844,5.002-31.059-2.102-45.028
				C322.398,238.293,309.471,245.912,313.843,254.509L313.843,254.509z"/>
		</g>
	</g>
	<g>
		<g>
			<path d="M500.473,260.353c9.686,0,9.771-15.004,0.107-15.004C490.895,245.349,490.809,260.353,500.473,260.353L500.473,260.353z"
				/>
		</g>
	</g>
	<g>
		<g>
			<path d="M505.285,258.213c9.686,0,9.771-15.004,0.107-15.004C495.707,243.209,495.621,258.213,505.285,258.213L505.285,258.213z"
				/>
		</g>
	</g>
	<g>
		<g>
			<path fill="#E2001A" d="M-4.502-0.603C0.852,2.43,6.125,6.229,12.486,6.494c0.934,0.039,1.977-1.349,0.669-1.403
				C7.095,4.838,2.086,1.171-3.013-1.717C-3.748-2.134-5.443-1.136-4.502-0.603L-4.502-0.603z"/>
		</g>
	</g>
	<g>
		<g>
			<path d="M8.062,10.657c3.757-2.012,9.703-0.273,13.662,0.456c6.729,1.239,13.213,1.796,20.061,1.871
				c15.931,0.175,31.86-0.276,47.795-0.059c16.407,0.224,32.813,0.52,49.219,0.028c16.182-0.485,32.269-2.347,48.456-2.813
				c32.567-0.937,65.223,0.479,97.801,0.479c33.14,0,66.28,0,99.42,0c65.385,0,130.741-1.607,196.128-1.489
				c16.388,0.029,32.776-0.107,49.153-0.737c16.179-0.622,32.217-2.405,48.353-3.553c31.812-2.265,63.75-0.299,95.595-0.113
				c1.256,0.006,2.512,0.009,3.768,0.009c9.687,0.012,9.771-14.991,0.107-15.003c-31.857-0.04-63.724-1.919-95.564-0.137
				c-16.104,0.901-32.11,2.875-48.233,3.627c-16.363,0.764-32.752,0.899-49.132,0.906c-65.371,0.027-130.72,1.485-196.089,1.485
				c-33.14,0-66.28,0-99.42,0c-32.623,0-65.283-1.166-97.899-0.569c-16.186,0.296-32.246,2.066-48.406,2.761
				c-16.393,0.705-32.817,0.408-49.217,0.17C77.604-2.253,61.612-2.061,45.598-2.007c-6.229,0.021-12.394,0.04-18.529-1.091
				C21.045-4.209,14.82-5.584,8.676-4.826C5.69-4.458,3.136-3.711,0.466-2.282C-8.06,2.283-0.458,15.219,8.062,10.657L8.062,10.657z
				"/>
		</g>
	</g>
	<g>
		<g>
			<path d="M674.654,10.363c20.726-5.745,42.771-3.175,63.949-2.219c23.969,1.083,48.672,1.723,72.559-0.733
				c4.063-0.417,7.526-3.029,7.556-7.447c0.024-3.746-3.376-7.975-7.448-7.556c-24.455,2.514-49.715,1.764-74.251,0.656
				c-22.041-0.996-44.681-3.168-66.247,2.809C661.454-1.544,665.329,12.947,674.654,10.363L674.654,10.363z"/>
		</g>
	</g>
	<g>
		<g>
			<path fill="#E2001A" d="M502.832,260.871c-2.159,3.487-2.112,7.208-0.606,10.955c0.255,0.636,2.158,0.046,1.932-0.518
				c-1.417-3.527-1.593-7.114,0.464-10.436C505.074,260.141,503.143,260.369,502.832,260.871L502.832,260.871z"/>
		</g>
	</g>
	<g>
		<g>
			<path d="M571.656,291.942c0.156-6.547,1.589-12.962,1.272-19.529c-0.307-6.39-3.741-13.43-2.074-19.721
				c2.481-9.366-11.994-13.307-14.471-3.961c-1.851,6.986-0.215,13.552,1.143,20.46c1.476,7.507-0.694,15.121-0.874,22.644
				C556.422,301.528,571.426,301.592,571.656,291.942L571.656,291.942z"/>
		</g>
	</g>
	<g>
		<g>
			<path d="M494.085,258.145c1.089,10.049,4.595,20.548,2.94,30.693c-1.543,9.466,12.916,13.495,14.471,3.961
				c1.944-11.927-1.132-22.769-2.407-34.547c-0.44-4.061-3.014-7.526-7.448-7.556C497.912,250.672,493.645,254.073,494.085,258.145
				L494.085,258.145z"/>
		</g>
	</g>
</g>
</svg>
